<?xml version="1.0" encoding="utf-8"?>
<!-- Generator: Adobe Illustrator 22.0.0, SVG Export Plug-In . SVG Version: 6.00 Build 0)  -->
<svg version="1.1" id="Layer_1" xmlns="http://www.w3.org/2000/svg" xmlns:xlink="http://www.w3.org/1999/xlink" x="0px" y="0px"
	 viewBox="0 0 463.5 463.5" style="enable-background:new 0 0 463.5 463.5;" xml:space="preserve">
<style type="text/css">
	.st0{fill:#F8E000;stroke:#000000;stroke-width:1.2;stroke-linecap:round;stroke-linejoin:round;stroke-miterlimit:10;}
	.st1{fill:none;stroke:#000000;stroke-width:1.2;stroke-linecap:round;stroke-linejoin:round;stroke-miterlimit:10;}
	.st2{fill:none;stroke:#000000;stroke-width:1.2;stroke-miterlimit:10;}
	.st3{fill:#FBEEA3;stroke:#000000;stroke-width:1.2;stroke-miterlimit:10;}
	.st4{clip-path:url(#SVGID_4_);}
	.st5{fill:none;stroke:#5B400C;stroke-width:1.2;stroke-miterlimit:10;}
	.st6{opacity:0.8;clip-path:url(#SVGID_10_);}
	.st7{fill:none;stroke:#000000;stroke-width:1.2514;stroke-linejoin:round;stroke-miterlimit:10;}
	.st8{fill:#646066;stroke:#000000;stroke-width:1.2;stroke-linecap:round;stroke-linejoin:round;stroke-miterlimit:10;}
	.st9{fill:#C0BAC3;stroke:#000000;stroke-width:1.2;stroke-linecap:round;stroke-linejoin:round;stroke-miterlimit:10;}
	.st10{fill:#BFB6A2;stroke:#000000;stroke-width:1.2;stroke-linecap:round;stroke-linejoin:round;stroke-miterlimit:10;}
	.st11{fill:#FFFFFF;stroke:#000000;stroke-width:1.2;stroke-linecap:round;stroke-linejoin:round;stroke-miterlimit:10;}
	.st12{fill:#757077;}
	.st13{fill:#FFFFFF;}
	.st14{clip-path:url(#SVGID_16_);}
	.st15{fill:#EFCE31;stroke:#EFCE31;stroke-width:1.2;stroke-miterlimit:10;}
	.st16{fill:#DA972A;stroke:#3A1900;stroke-width:1.2;stroke-linecap:round;stroke-linejoin:round;stroke-miterlimit:10;}
	.st17{fill:none;stroke:#3A1900;stroke-width:1.2;stroke-linecap:round;stroke-linejoin:round;stroke-miterlimit:10;}
	.st18{fill:#E4B12E;stroke:#3A1900;stroke-width:1.2;stroke-linecap:round;stroke-linejoin:round;stroke-miterlimit:10;}
	.st19{clip-path:url(#SVGID_22_);fill:#D38027;}
	.st20{stroke:#000000;stroke-width:1.2;stroke-linecap:round;stroke-linejoin:round;stroke-miterlimit:10;}
	.st21{clip-path:url(#SVGID_28_);}
	.st22{fill:#D8D9DD;}
	.st23{fill:#383B00;stroke:#000000;stroke-width:1.2;stroke-linecap:round;stroke-linejoin:round;stroke-miterlimit:10;}
	.st24{fill:#AEAC9F;}
	.st25{fill:#E8E8DF;}
	.st26{fill:none;stroke:#000000;stroke-width:1.2514;stroke-linecap:round;stroke-linejoin:round;stroke-miterlimit:10;}
	.st27{opacity:0.75;}
	.st28{fill:#B76258;}
	.st29{fill:none;stroke:#6B340D;stroke-width:1.2;stroke-linecap:round;stroke-linejoin:round;stroke-miterlimit:10;}
	.st30{fill:#E3B764;}
	.st31{fill:#E8C572;}
	.st32{clip-path:url(#SVGID_34_);}
	.st33{fill:#EDD04B;}
	.st34{fill:#FAFADC;}
	.st35{stroke:#000000;stroke-width:1.2514;stroke-linecap:round;stroke-linejoin:round;stroke-miterlimit:10;}
	.st36{fill:#BC9728;stroke:#000000;stroke-width:1.2;stroke-linecap:round;stroke-linejoin:round;stroke-miterlimit:10;}
	.st37{fill:#FDFCEA;stroke:#000000;stroke-width:1.2;stroke-linecap:round;stroke-linejoin:round;stroke-miterlimit:10;}
	.st38{fill:#F7F0C1;}
	.st39{fill:#FAF0BB;stroke:#000000;stroke-width:1.2;stroke-linecap:round;stroke-linejoin:round;stroke-miterlimit:10;}
</style>
<g>
	<g>
		
			<image style="overflow:visible;opacity:0.75;" width="461" height="492" xlink:href="39FE9C7A.png"  transform="matrix(1 0 0 1 2.3779 -13.2656)">
		</image>
		<g>
			<g>
				<path class="st0" d="M365.4,132.3c16,31.7,39.9,5.4,39.9,5.4l-10.4-9.2l8.7-5c21.4-11.4,23.5-27.3,24.6-40.9
					c1.1-13.6-19.9-26.5-19.9-26.5s0,0-10.4-1.6c-10.4-1.6-36.9-33.6-36.9-33.6l4.6-7.5L352.7,1.7c-29.4-0.1-35.4,12.8-53.6,33.7
					c-18.2,20.9-45.6,11.8-45.6,11.8l-20.7,21.9l-20.7-21.9c0,0-27.4,9.1-45.6-11.8S142.2,1.7,112.8,1.7L99.9,13.4l4.6,7.5
					c0,0-26.4,32-36.9,33.6c-10.4,1.6-10.4,1.6-10.4,1.6S36.2,69,37.3,82.6c1.1,13.6,3.3,29.5,24.6,40.9l8.7,5l-10.4,9.2
					c0,0,23.9,26.3,39.9-5.4c0,0,5.5,90.7-82.8,166.8c0,0,40.4,34,64.2,78.8l22.2-17.8c0,0-0.1,15.8,50.1,37.5
					c50.3,21.7,69.5,29.2,69.9,65.4h8.8h0.4h8.8c0.4-36.2,19.6-43.7,69.9-65.4c50.3-21.7,50.1-37.5,50.1-37.5L384,378
					c23.8-44.9,64.2-78.8,64.2-78.8C359.9,223,365.4,132.3,365.4,132.3z"/>
				<path class="st1" d="M100.2,132.3c0,0,0-55.6-35.3-62.6C41.1,65,44.4,90.2,44.4,90.2"/>
				<path class="st2" d="M70.7,128.5c0,0,27.1,15.3,5.4,18.9"/>
				<path class="st1" d="M62,69.3c0,0-25.5,9.2-1.7,30.5c23.8,21.3,41.5,23.1,31,44.3"/>
				<g>
					<path class="st1" d="M63.3,69.5c0,0-21.2,11.4,0.3,29.5"/>
					<path class="st1" d="M64.9,69.7c0,0-14.7,8.7,3.5,23.9"/>
					<path class="st1" d="M66.4,70.1c0,0-14.1,8.1,4.3,19.4"/>
					<path class="st1" d="M69.1,70.9c0,0-12.5,6.2,4,15.2"/>
					<path class="st1" d="M74.4,107.3c0,0,28.2,11,21.7,31.7"/>
					<path class="st1" d="M81.5,104.6c0,0,20.2,9.2,17.9,29"/>
					<path class="st1" d="M87.8,100.7c0,0,10.2,9.4,11.2,17.8"/>
					<path class="st1" d="M92.2,99.4c0,0,2.6,4.9,5.1,10.2"/>
				</g>
				<path class="st3" d="M105.3,13.4c0,0-0.1,2.5,9.9,3.3"/>
				<path class="st1" d="M365.8,132.3c0,0,0-55.6,35.3-62.6c23.7-4.7,20.4,20.4,20.4,20.4"/>
				<path class="st2" d="M395.3,128.5c0,0-27.1,15.3-5.4,18.9"/>
				<path class="st1" d="M404,69.3c0,0,25.5,9.2,1.7,30.5c-23.8,21.3-41.5,23.1-31,44.3"/>
				<g>
					<path class="st1" d="M402.7,69.5c0,0,21.2,11.4-0.3,29.5"/>
					<path class="st1" d="M401.1,69.7c0,0,14.7,8.7-3.5,23.9"/>
					<path class="st1" d="M399.6,70.1c0,0,14.1,8.1-4.3,19.4"/>
					<path class="st1" d="M396.9,70.9c0,0,12.5,6.2-4,15.2"/>
					<path class="st1" d="M391.5,107.3c0,0-28.2,11-21.7,31.7"/>
					<path class="st1" d="M384.4,104.6c0,0-20.2,9.2-17.9,29"/>
					<path class="st1" d="M378.2,100.7c0,0-10.2,9.4-11.2,17.8"/>
					<path class="st1" d="M373.7,99.4c0,0-2.6,4.9-5.1,10.2"/>
				</g>
				<path class="st3" d="M360.7,13.4c0,0,0.1,2.5-9.9,3.3"/>
			</g>
		</g>
	</g>
	<g>
		
			<image style="overflow:visible;opacity:0.75;" width="337" height="271" xlink:href="39FE9C7E.png"  transform="matrix(1 0 0 1 138.3779 174.7344)">
		</image>
		<g>
			<g>
				<defs>
					<path id="SVGID_1_" d="M369.4,221.9H238.8v206.6c0,0,4.4-18.2,60.7-40c56.3-21.8,56.5-52.5,56.5-52.5l22.9,19.3
						c0,0,23.4-34.9,45.9-53.4C424.9,301.9,386.1,265.4,369.4,221.9z"/>
				</defs>
				<clipPath id="SVGID_2_">
					<use xlink:href="#SVGID_1_"  style="overflow:visible;"/>
				</clipPath>
			</g>
			<g>
				<defs>
					<path id="SVGID_3_" d="M369.4,221.9H238.8v206.6c0,0,4.4-18.2,60.7-40c56.3-21.8,56.5-52.5,56.5-52.5l22.9,19.3
						c0,0,23.4-34.9,45.9-53.4C424.9,301.9,386.1,265.4,369.4,221.9z"/>
				</defs>
				<use xlink:href="#SVGID_3_"  style="overflow:visible;fill:#00589E;"/>
				<clipPath id="SVGID_4_">
					<use xlink:href="#SVGID_3_"  style="overflow:visible;"/>
				</clipPath>
				<g class="st4">
					<line class="st5" x1="461.1" y1="189.5" x2="152.3" y2="189.5"/>
					<line class="st5" x1="461.1" y1="195.3" x2="152.3" y2="195.3"/>
					<line class="st5" x1="461.1" y1="201.2" x2="152.3" y2="201.2"/>
					<line class="st5" x1="461.1" y1="207.1" x2="152.3" y2="207.1"/>
					<line class="st5" x1="461.1" y1="213" x2="152.3" y2="213"/>
					<line class="st5" x1="461.1" y1="218.8" x2="152.3" y2="218.8"/>
					<line class="st5" x1="461.1" y1="224.7" x2="152.3" y2="224.7"/>
					<line class="st5" x1="461.1" y1="230.6" x2="152.3" y2="230.6"/>
					<line class="st5" x1="461.1" y1="236.4" x2="152.3" y2="236.4"/>
					<line class="st5" x1="461.1" y1="242.3" x2="152.3" y2="242.3"/>
					<line class="st5" x1="461.1" y1="248.2" x2="152.3" y2="248.2"/>
					<line class="st5" x1="461.1" y1="254" x2="152.3" y2="254"/>
					<line class="st5" x1="461.1" y1="259.9" x2="152.3" y2="259.9"/>
					<line class="st5" x1="461.1" y1="265.8" x2="152.3" y2="265.8"/>
					<line class="st5" x1="461.1" y1="271.7" x2="152.3" y2="271.7"/>
					<line class="st5" x1="461.1" y1="277.5" x2="152.3" y2="277.5"/>
					<line class="st5" x1="461.1" y1="283.4" x2="152.3" y2="283.4"/>
					<line class="st5" x1="461.1" y1="289.3" x2="152.3" y2="289.3"/>
					<line class="st5" x1="461.1" y1="295.1" x2="152.3" y2="295.1"/>
					<line class="st5" x1="461.1" y1="301" x2="152.3" y2="301"/>
					<line class="st5" x1="461.1" y1="306.9" x2="152.3" y2="306.9"/>
					<line class="st5" x1="461.1" y1="312.8" x2="152.3" y2="312.8"/>
					<line class="st5" x1="461.1" y1="318.6" x2="152.3" y2="318.6"/>
					<line class="st5" x1="461.1" y1="324.5" x2="152.3" y2="324.5"/>
					<line class="st5" x1="461.1" y1="330.4" x2="152.3" y2="330.4"/>
					<line class="st5" x1="461.1" y1="336.2" x2="152.3" y2="336.2"/>
					<line class="st5" x1="461.1" y1="342.1" x2="152.3" y2="342.1"/>
					<line class="st5" x1="461.1" y1="348" x2="152.3" y2="348"/>
					<line class="st5" x1="461.1" y1="353.8" x2="152.3" y2="353.8"/>
					<line class="st5" x1="461.1" y1="359.7" x2="152.3" y2="359.7"/>
					<line class="st5" x1="461.1" y1="365.6" x2="152.3" y2="365.6"/>
					<line class="st5" x1="461.1" y1="371.5" x2="152.3" y2="371.5"/>
					<line class="st5" x1="461.1" y1="377.3" x2="152.3" y2="377.3"/>
					<line class="st5" x1="461.1" y1="383.2" x2="152.3" y2="383.2"/>
					<line class="st5" x1="461.1" y1="389.1" x2="152.3" y2="389.1"/>
					<line class="st5" x1="461.1" y1="394.9" x2="152.3" y2="394.9"/>
					<line class="st5" x1="461.1" y1="400.8" x2="152.3" y2="400.8"/>
					<line class="st5" x1="461.1" y1="406.7" x2="152.3" y2="406.7"/>
					<line class="st5" x1="461.1" y1="412.5" x2="152.3" y2="412.5"/>
					<line class="st5" x1="461.1" y1="418.4" x2="152.3" y2="418.4"/>
					<line class="st5" x1="461.1" y1="424.3" x2="152.3" y2="424.3"/>
					<line class="st5" x1="461.1" y1="430.2" x2="152.3" y2="430.2"/>
				</g>
				
					<use xlink:href="#SVGID_3_"  style="overflow:visible;fill:none;stroke:#000000;stroke-width:1.2;stroke-linecap:round;stroke-linejoin:round;stroke-miterlimit:10;"/>
			</g>
			<g>
				<defs>
					<path id="SVGID_5_" d="M369.4,221.9H238.8v206.6c0,0,4.4-18.2,60.7-40c56.3-21.8,56.5-52.5,56.5-52.5l22.9,19.3
						c0,0,23.4-34.9,45.9-53.4C424.9,301.9,386.1,265.4,369.4,221.9z"/>
				</defs>
				<clipPath id="SVGID_6_">
					<use xlink:href="#SVGID_5_"  style="overflow:visible;"/>
				</clipPath>
			</g>
		</g>
	</g>
	<g>
		
			<image style="overflow:visible;opacity:0.75;" width="301" height="300" xlink:href="39FE9C79.png"  transform="matrix(1 0 0 1 -32.6221 163.7344)">
		</image>
		<g>
			<g>
				<defs>
					<path id="SVGID_7_" d="M96.6,221.9h130.6v206.6c0,0-4.4-18.2-60.7-40c-56.3-21.8-56.5-52.5-56.5-52.5L87,355.3
						c0,0-23.4-34.9-45.9-53.4C41.1,301.9,79.9,265.4,96.6,221.9z"/>
				</defs>
				<clipPath id="SVGID_8_">
					<use xlink:href="#SVGID_7_"  style="overflow:visible;"/>
				</clipPath>
			</g>
			<g>
				<defs>
					<path id="SVGID_9_" d="M96.6,221.9h130.6v206.6c0,0-4.4-18.2-60.7-40c-56.3-21.8-56.5-52.5-56.5-52.5L87,355.3
						c0,0-23.4-34.9-45.9-53.4C41.1,301.9,79.9,265.4,96.6,221.9z"/>
				</defs>
				<use xlink:href="#SVGID_9_"  style="overflow:visible;fill:#EFCE31;"/>
				<clipPath id="SVGID_10_">
					<use xlink:href="#SVGID_9_"  style="overflow:visible;"/>
				</clipPath>
				<g class="st6">
					<rect x="-18.1" y="178.2" class="st2" width="270.7" height="270.7"/>
					<line class="st2" x1="-18.1" y1="440.1" x2="252.6" y2="440.1"/>
					<line class="st2" x1="-18.1" y1="431.4" x2="252.6" y2="431.4"/>
					<line class="st2" x1="-18.1" y1="422.7" x2="252.6" y2="422.7"/>
					<line class="st2" x1="-18.1" y1="414" x2="252.6" y2="414"/>
					<line class="st2" x1="-18.1" y1="405.2" x2="252.6" y2="405.2"/>
					<line class="st2" x1="-18.1" y1="396.5" x2="252.6" y2="396.5"/>
					<line class="st2" x1="-18.1" y1="387.8" x2="252.6" y2="387.8"/>
					<line class="st2" x1="-18.1" y1="378.9" x2="252.6" y2="378.9"/>
					<line class="st2" x1="-18.1" y1="370.2" x2="252.6" y2="370.2"/>
					<line class="st2" x1="-18.1" y1="361.5" x2="252.6" y2="361.5"/>
					<line class="st2" x1="-18.1" y1="352.8" x2="252.6" y2="352.8"/>
					<line class="st2" x1="-18.1" y1="344" x2="252.6" y2="344"/>
					<line class="st2" x1="-18.1" y1="335.3" x2="252.6" y2="335.3"/>
					<line class="st2" x1="-18.1" y1="326.6" x2="252.6" y2="326.6"/>
					<line class="st2" x1="-18.1" y1="317.9" x2="252.6" y2="317.9"/>
					<line class="st2" x1="-18.1" y1="309.2" x2="252.6" y2="309.2"/>
					<line class="st2" x1="-18.1" y1="300.4" x2="252.6" y2="300.4"/>
					<line class="st2" x1="-18.1" y1="291.7" x2="252.6" y2="291.7"/>
					<line class="st2" x1="-18.1" y1="283" x2="252.6" y2="283"/>
					<line class="st2" x1="-18.1" y1="274.3" x2="252.6" y2="274.3"/>
					<line class="st2" x1="-18.1" y1="265.5" x2="252.6" y2="265.5"/>
					<line class="st2" x1="-18.1" y1="256.8" x2="252.6" y2="256.8"/>
					<line class="st2" x1="-18.1" y1="248.1" x2="252.6" y2="248.1"/>
					<line class="st2" x1="-18.1" y1="239.2" x2="252.6" y2="239.2"/>
					<line class="st2" x1="-18.1" y1="230.5" x2="252.6" y2="230.5"/>
					<line class="st2" x1="-18.1" y1="221.8" x2="252.6" y2="221.8"/>
					<line class="st2" x1="-18.1" y1="213.1" x2="252.6" y2="213.1"/>
					<line class="st2" x1="-18.1" y1="204.3" x2="252.6" y2="204.3"/>
					<line class="st2" x1="-18.1" y1="195.6" x2="252.6" y2="195.6"/>
					<line class="st2" x1="-18.1" y1="186.9" x2="252.6" y2="186.9"/>
					<line class="st2" x1="243.9" y1="178.2" x2="243.9" y2="448.9"/>
					<line class="st2" x1="235.2" y1="178.2" x2="235.2" y2="448.9"/>
					<line class="st2" x1="226.5" y1="178.2" x2="226.5" y2="448.9"/>
					<line class="st2" x1="217.7" y1="178.2" x2="217.7" y2="448.9"/>
					<line class="st2" x1="208.9" y1="178.2" x2="208.9" y2="448.9"/>
					<line class="st2" x1="200.2" y1="178.2" x2="200.2" y2="448.9"/>
					<line class="st2" x1="191.5" y1="178.2" x2="191.5" y2="448.9"/>
					<line class="st2" x1="182.8" y1="178.2" x2="182.8" y2="448.9"/>
					<line class="st2" x1="174" y1="178.2" x2="174" y2="448.9"/>
					<line class="st2" x1="165.3" y1="178.2" x2="165.3" y2="448.9"/>
					<line class="st2" x1="156.6" y1="178.2" x2="156.6" y2="448.9"/>
					<line class="st2" x1="147.8" y1="178.2" x2="147.8" y2="448.9"/>
					<line class="st2" x1="139.1" y1="178.2" x2="139.1" y2="448.9"/>
					<line class="st2" x1="130.4" y1="178.2" x2="130.4" y2="448.9"/>
					<line class="st2" x1="121.6" y1="178.2" x2="121.6" y2="448.9"/>
					<line class="st2" x1="112.9" y1="178.2" x2="112.9" y2="448.9"/>
					<line class="st2" x1="104.2" y1="178.2" x2="104.2" y2="448.9"/>
					<line class="st2" x1="95.5" y1="178.2" x2="95.5" y2="448.9"/>
					<line class="st2" x1="86.7" y1="178.2" x2="86.7" y2="448.9"/>
					<line class="st2" x1="78" y1="178.2" x2="78" y2="448.9"/>
					<line class="st2" x1="69.2" y1="178.2" x2="69.2" y2="448.9"/>
					<line class="st2" x1="60.5" y1="178.2" x2="60.5" y2="448.9"/>
					<line class="st2" x1="51.8" y1="178.2" x2="51.8" y2="448.9"/>
					<line class="st2" x1="43.1" y1="178.2" x2="43.1" y2="448.9"/>
					<line class="st2" x1="34.3" y1="178.2" x2="34.3" y2="448.9"/>
					<line class="st2" x1="25.6" y1="178.2" x2="25.6" y2="448.9"/>
					<line class="st2" x1="16.9" y1="178.2" x2="16.9" y2="448.9"/>
					<line class="st2" x1="8.1" y1="178.2" x2="8.1" y2="448.9"/>
					<line class="st2" x1="-0.6" y1="178.2" x2="-0.6" y2="448.9"/>
					<line class="st2" x1="-9.4" y1="178.2" x2="-9.4" y2="448.9"/>
				</g>
				
					<use xlink:href="#SVGID_9_"  style="overflow:visible;fill:none;stroke:#000000;stroke-width:1.2;stroke-linecap:round;stroke-linejoin:round;stroke-miterlimit:10;"/>
			</g>
			<g>
				<defs>
					<path id="SVGID_11_" d="M96.6,221.9h130.6v206.6c0,0-4.4-18.2-60.7-40c-56.3-21.8-56.5-52.5-56.5-52.5L87,355.3
						c0,0-23.4-34.9-45.9-53.4C41.1,301.9,79.9,265.4,96.6,221.9z"/>
				</defs>
				<clipPath id="SVGID_12_">
					<use xlink:href="#SVGID_11_"  style="overflow:visible;"/>
				</clipPath>
			</g>
		</g>
	</g>
	<path class="st7" d="M329.6,205.2c0,0,17.5-0.3,27.3-32.8"/>
	<g>
		
			<image style="overflow:visible;opacity:0.95;" width="186" height="192" xlink:href="39FE9C7B.png"  transform="matrix(1 0 0 1 43.5014 217.8584)">
		</image>
		<g>
			<g>
				<path class="st8" d="M107.5,294.4c0,0-7.6-2.2-13.8,1.3c-6.3,3.5-12.1-3.5-15.1-8.3c-3-4.8-11.6-12.9-12.9-13.3
					c-1.3-0.4,1-9.6,2.9-12.6c2-2.9,6.2-2,6.2,5.1c0,7.1,2.8,8.8,7.9,14.6c5.1,5.8,14.5,1.8,20.8-7.9"/>
				<path class="st8" d="M190,360.2c0,0-0.8,13.3,3.1,15.6c3.9,2.2,10,7.5,10,7.5s-10.2,13.1-13.1,13.6c-3,0.6-15.2-5.3-17.4-6.1
					c-2.2-0.8,0.9-7.1,5.8-6.3c4.9,0.7,9.2,2.7,9.3-1.5c0-4.1-14.5-8.6-15.8-22.8"/>
				<path class="st9" d="M55.4,318.2c0,0,8.2-2.9,9.9-1.3c1.7,1.6,1.3,3.2,5.7,5.2c3.6,1.7,23.9-9.8,25-12.9
					c1.1-3.1,6.2-19,4.7-24.5c-1.6-5.5-0.2-24.7,5.1-31.4c5.3-6.7,8.3-11.4,11.7-13.9c3.3-2.5,11.7-9.5,17.8-9.5
					c6.1,0,15.7,4,20.1,15.2c4.4,11.2,7.7,9.3,10.5,11.8c2.8,2.5-2.4,8.1-10,8.6c-8.2,0.6-19,1.5-20.6,0.8c-1.5-0.7-0.1,1.2,7,4.1
					c7.1,2.9,18.8,10.9,22.3,20.2c3.5,9.3,19.2,1.1,31.4,17.7c12.2,16.6,9.8,37.1,11.3,43.9c1.5,6.8,9.5,14,10,25.3
					c0.6,11.3-1.1,15.8-5.4,8c-4.3-7.8-10.4-16.9-12.7-24c-2.2-7.1-2.5,3.7-9.5,3.8c-7,0-11.4,0.2-13.9,5.3
					c-2.5,5-2.8,11.1-2.8,11.1s-10.1-1.7-13.5,1.5c-3.4,3.2-3.2,2.1-3.2,2.1s-18.8-11.6-20-13.1c-1.2-1.5,6.2-7,9.9-2.9
					c3.7,4,9.9,6.4,13,3.5c3.1-2.9-1.9-12.5-1-18.6c0.8-6.1-33.8-27.5-35.9-31.1c-2.1-3.6-7.8-3.1-13.1-0.6s-26.6,6.5-34.1,8.6
					C67.8,333.3,65.5,329.7,55.4,318.2z"/>
				<path class="st10" d="M122.4,323.2c-8.1-9.5-4.2-21.1-4.2-21.1"/>
				<path class="st1" d="M161.6,342.8c-2.9,1-3.3,11.5-3.3,11.5"/>
				<path class="st1" d="M136.4,266.7c-6-0.2-14-6.3-14-6.3"/>
				<path class="st1" d="M160,290.9c0,0,2.7,3.4,10.2,4.5"/>
				<path class="st1" d="M104.3,288.7c2.2-9.1-0.6-17,5.3-25.3"/>
				<path class="st1" d="M103.9,268.3c1-5.5,2.8-10.4,7.1-14.2"/>
				<path class="st1" d="M142,273.4c4.3,1.3,9.2,6.2,11.8,9.9"/>
				<path class="st1" d="M166.9,297c6.1,2.3,13.6,2.5,19.2,6.1"/>
				<path class="st1" d="M172.5,301.8c3.8,0.4,7.7,1.8,10.6,4.4"/>
				<path class="st1" d="M174,305.1c2.6,0.3,4.6,2.5,2.8,5"/>
				<path class="st1" d="M159,373.2c4-1.2,8.1-4,10.6-7.4"/>
				<path class="st1" d="M163.4,367.3c5-6.2-1.3-15.2,5.1-21"/>
				<path class="st1" d="M203.5,340.7c1.5,3.2,0.5,6.5,0.2,9.8c-0.4,5.6,0.9,9.9,3.8,14.7"/>
				<path class="st1" d="M198.3,347.8c2.7-4.1,7.7-18.3,1.8-21.6"/>
				<path class="st1" d="M195.7,325.1c3.9,3.1,4.4,5,4.2,10.3"/>
				<path class="st11" d="M119.6,311.5c-0.9-3.6,0.4-6.9,2.9-9.6"/>
				<path d="M160,255.8c0,0-8-1.6-11.4-4.7c-3.4-3-9.3-6.4-11.4-9.6c-2.1-3.2-8.4-11-14.2-7.6c-5.9,3.4-13.1,14.4-13.1,14.4
					s10.1-3.7,12.8-2.5c2.7,1.2,9,5,15.3,6.1c6.3,1.1,7.9,4.2,10.5,5.7c2.6,1.5,5.2,2,5.2,2s-20.2,8.5-30.4-3.5c0,0-6.2,4.4,2,7.9
					c10.7,4.6,25.8,1.8,28.6,2.5C156.7,267.1,173.2,260.2,160,255.8z"/>
				<path class="st12" d="M134,239.2c0,0-3.2-3.6-6.7-2.8c-3.5,0.8-6.7,1.9-4.2,4.5c2.5,2.5,8.1,3.2,9.6,2.4
					c1.5-0.8-0.7-0.8-2.1-2.6c-1.4-1.8,3.3,1.1,3.3-0.1C134,239.2,134,239.2,134,239.2z"/>
				<path class="st13" d="M137.9,249.1c0,0-2.5-0.7-2.5-1.1c0-0.4,1.7-1.8,2.5-1.8c0.8,0,2.9,1.5,0.4,2.9"/>
				<path d="M158.8,357.6c0,0,1-9.4,1.7-14.7c0.6-5.3-2.8-2.8-6.5-4.3c-3.7-1.4-5.6-4.4-7.8-6.9c-2.2-2.5-8.1-9.2-8-6.5
					c0.2,2.8-1.6,7-3.2,4.9c-1.5-2.2-1-4.9-2.4-8.3c-1.4-3.4-5.8-6.6-7.2-8.9c-1.4-2.3,0-7.3,0-8.8s-1.5-7.6-3.3-7
					c-1.9,0.6-7.6,4.2-8.1,9.7c-0.6,5.5-1,9.5-3.8,12.2c-2.9,2.7-12.8,7.3-12.8,7.3s13.8-4.5,16.3-5c2.5-0.5,6.4-1.9,7.9,0
					c1.5,1.9,7.2,6.8,9.7,8.6c2.5,1.8,15.7,11.5,18.9,14.2C153.2,346.9,159.2,351.7,158.8,357.6z"/>
			</g>
		</g>
	</g>
	<path class="st7" d="M261.5,132.3c0,0-10.4,26-1.2,32.4"/>
	<g>
		
			<image style="overflow:visible;opacity:0.75;" width="418" height="419" xlink:href="39FE9C78.png"  transform="matrix(1 0 0 1 -31.6221 -118.2656)">
		</image>
		<g>
			<g>
				<defs>
					<path id="SVGID_13_" d="M104.5,20.9c0,0,8.7-10.3,25.4,1.3c16.7,11.5,41.3,41.6,79,39.1l18.1,18.5v131H100.3
						c0,0,52.3-129.7-32.7-156.2C67.6,54.5,74.6,54.3,104.5,20.9z"/>
				</defs>
				<clipPath id="SVGID_14_">
					<use xlink:href="#SVGID_13_"  style="overflow:visible;"/>
				</clipPath>
			</g>
			<g>
				<defs>
					<path id="SVGID_15_" d="M104.5,20.9c0,0,8.7-10.3,25.4,1.3c16.7,11.5,41.3,41.6,79,39.1l18.1,18.5v131H100.3
						c0,0,52.3-129.7-32.7-156.2C67.6,54.5,74.6,54.3,104.5,20.9z"/>
				</defs>
				<use xlink:href="#SVGID_15_"  style="overflow:visible;fill:#A01127;"/>
				<clipPath id="SVGID_16_">
					<use xlink:href="#SVGID_15_"  style="overflow:visible;"/>
				</clipPath>
				<g class="st14">
					<line class="st15" x1="201.4" y1="-103.3" x2="-16.9" y2="115.1"/>
					<line class="st15" x1="205.6" y1="-99.1" x2="-12.8" y2="119.2"/>
					<line class="st15" x1="209.7" y1="-95" x2="-8.6" y2="123.4"/>
					<line class="st15" x1="213.9" y1="-90.8" x2="-4.5" y2="127.5"/>
					<line class="st15" x1="218" y1="-86.7" x2="-0.3" y2="131.7"/>
					<line class="st15" x1="222.2" y1="-82.5" x2="3.8" y2="135.8"/>
					<line class="st15" x1="226.3" y1="-78.4" x2="8" y2="140"/>
					<line class="st15" x1="230.5" y1="-74.2" x2="12.1" y2="144.1"/>
					<line class="st15" x1="234.6" y1="-70.1" x2="16.3" y2="148.3"/>
					<line class="st15" x1="238.8" y1="-65.9" x2="20.4" y2="152.4"/>
					<line class="st15" x1="242.9" y1="-61.8" x2="24.6" y2="156.6"/>
					<line class="st15" x1="247.1" y1="-57.6" x2="28.7" y2="160.7"/>
					<line class="st15" x1="251.2" y1="-53.5" x2="32.9" y2="164.9"/>
					<line class="st15" x1="255.4" y1="-49.3" x2="37" y2="169"/>
					<line class="st15" x1="259.5" y1="-45.2" x2="41.2" y2="173.2"/>
					<line class="st15" x1="263.7" y1="-41" x2="45.3" y2="177.3"/>
					<line class="st15" x1="267.8" y1="-36.9" x2="49.5" y2="181.5"/>
					<line class="st15" x1="272" y1="-32.7" x2="53.6" y2="185.6"/>
					<line class="st15" x1="276.1" y1="-28.6" x2="57.8" y2="189.8"/>
					<line class="st15" x1="280.3" y1="-24.4" x2="61.9" y2="193.9"/>
					<line class="st15" x1="284.4" y1="-20.3" x2="66.1" y2="198.1"/>
					<line class="st15" x1="288.6" y1="-16.1" x2="70.2" y2="202.2"/>
					<line class="st15" x1="292.7" y1="-11.9" x2="74.4" y2="206.4"/>
					<line class="st15" x1="296.9" y1="-7.8" x2="78.6" y2="210.5"/>
					<line class="st15" x1="301" y1="-3.6" x2="82.7" y2="214.7"/>
					<line class="st15" x1="305.2" y1="0.5" x2="86.9" y2="218.8"/>
					<line class="st15" x1="309.3" y1="4.7" x2="91" y2="223"/>
					<line class="st15" x1="313.5" y1="8.8" x2="95.2" y2="227.1"/>
					<line class="st15" x1="317.6" y1="13" x2="99.3" y2="231.3"/>
					<line class="st15" x1="321.8" y1="17.1" x2="103.5" y2="235.4"/>
					<line class="st15" x1="325.9" y1="21.3" x2="107.6" y2="239.6"/>
					<line class="st15" x1="330.1" y1="25.4" x2="111.8" y2="243.7"/>
					<line class="st15" x1="334.2" y1="29.6" x2="115.9" y2="247.9"/>
					<line class="st15" x1="338.4" y1="33.7" x2="120.1" y2="252"/>
					<line class="st15" x1="342.5" y1="37.9" x2="124.2" y2="256.2"/>
					<line class="st15" x1="346.7" y1="42" x2="128.4" y2="260.3"/>
					<line class="st15" x1="350.8" y1="46.2" x2="132.5" y2="264.5"/>
					<line class="st15" x1="355" y1="50.3" x2="136.7" y2="268.7"/>
					<line class="st15" x1="359.1" y1="54.5" x2="140.8" y2="272.8"/>
					<line class="st15" x1="363.3" y1="58.6" x2="145" y2="277"/>
					<line class="st15" x1="367.5" y1="62.8" x2="149.1" y2="281.1"/>
					<line class="st15" x1="371.6" y1="66.9" x2="153.3" y2="285.3"/>
				</g>
				
					<use xlink:href="#SVGID_15_"  style="overflow:visible;fill:none;stroke:#000000;stroke-width:1.2;stroke-linecap:round;stroke-linejoin:round;stroke-miterlimit:10;"/>
			</g>
			<g>
				<defs>
					<path id="SVGID_17_" d="M104.5,20.9c0,0,8.7-10.3,25.4,1.3c16.7,11.5,41.3,41.6,79,39.1l18.1,18.5v131H100.3
						c0,0,52.3-129.7-32.7-156.2C67.6,54.5,74.6,54.3,104.5,20.9z"/>
				</defs>
				<clipPath id="SVGID_18_">
					<use xlink:href="#SVGID_17_"  style="overflow:visible;"/>
				</clipPath>
			</g>
		</g>
	</g>
	<g>
		
			<image style="overflow:visible;opacity:0.95;" width="177" height="184" xlink:href="39FE9C86.png"  transform="matrix(1 0 0 1 56.5014 39.8584)">
		</image>
		<g>
			<g>
				<g>
					<defs>
						<path id="SVGID_19_" d="M210.1,81.7c0,0-13-3.4-15.7-6c-2.7-2.6-6.6,1-6.6,1s2.4-3,0.5-6.1c-1.9-3.1-13.8-6.3-13.8-6.3
							s-1.3-7-7.2-4.8c-5.9,2.3-9.7,8.4-9.7,8.4l-1.4,4.7c0,0-5.9,6.6-6.8,8.7c-0.8,2.1,0,10.8,0,10.8l-3.1,11.4
							c0,0-0.3,9.7,0.2,13.2c0.5,3.5,7.4-1.6,10.4-3.3c0,0,2.5,13.6,7.3,16.8l3.7,1l-1-13.3l-2.3-2.9c0,0,3.7-0.1,5.2,1.5
							c1.5,1.6,6.7,4.8,6.7,4.8l0.8-1.3c0,0,1.2,3.3,2.6,5.8c1.4,2.5,1.4,2.5,1.4,2.5l0.6-2.9c0,0,4.2,3.3,5.4,5
							c1.3,1.7,4.6-1.6,4.6-1.6s6.9,0.6,8.3,5.4c1.5,4.8,0,4.2,0,5.4l6.9-2.4l0.2-11.7c0,0-3.9-13.4-14-14.3l-2.7-4.7
							c0,0,1.6-1.3,5-0.2c3.4,1,7.3,4.7,8.6,3.7c1.3-0.9,2.7-5.3,2.1-7.9c-0.6-2.5-0.6-2.5-0.6-2.5l-1.5,2.5c0,0-4,0.1-6.7-2.1
							c-2.7-2.1-0.8-4.6,0.2-5.1c1-0.4,8.3,0.5,10.2-1.2c1.9-1.7,0.8-8,0.8-8L210.1,81.7z"/>
					</defs>
					<clipPath id="SVGID_20_">
						<use xlink:href="#SVGID_19_"  style="overflow:visible;"/>
					</clipPath>
				</g>
			</g>
			<g>
				<path class="st16" d="M147.9,179.4c0,0,0.4,5.8-3.8,9.6c-4.2,3.8-1.5,2.4,0.8,4.6c2.3,2.3,8.3,4.6,9.2,7.7
					c0.8,3.1,3.9,8.2,6,8.8c2.1,0.6,11.7,2.1,13.2-0.2c1.5-2.3,0.3-8.7-4.9-9.8c-5.2-1.1-11.3-7.9-10.5-10.6
					c0.7-2.7,11.7-5.3,12.7-13.4c1-8.1-8.5-19.2-8.5-19.2"/>
				<path class="st17" d="M160,161.5c0,0,6.3,9.9,6.5,13.5c0.2,3.6-5.7,8.8-8.8,11.1"/>
				<path class="st18" d="M137.3,209.9c0,0-13,1.8-15.9-3.2c-2.9-5-3.5-10.5-4.8-12.4c-1.3-2,1.7-8.6,1.7-11.1c0-2.5,6.7,1,9.6-1.6
					c2.9-2.6,5-8.6,2.3-13.1c-2.8-4.5-5.9-3.7-7.7-9.5c-1.8-5.8,0.8-2.1,1.3-5.4c0.4-3.3-6-13.5-1.3-25.8c4.8-12.3,19.8-35,15.6-52
					c-4.1-17-7.3-20.4-14-18.9c-6.7,1.5-1,8.1-1,8.1s3.9-1.2,6,2.2c2.1,3.3,4.4,10.4,3.3,16.9c-1,6.5-4.9,10-4.9,10
					s-4.4-5.6-3.8-9.2c0.5-3.6-5-4.2-5-4.2s-6.5-12.7-5.4-19.2c1-6.5,3.4-10.8,12.7-10s18.1,6.4,18.6,24.3
					c0.4,17.8-13.4,40.7-14.7,50.3c-1.3,9.6-3.6,14.3,2.2,22.9c0,0,11.8-3,14-11c2.2-7.9,8.3-25,10.2-27.3c1.9-2.3,17.7,0,17.7,0
					s14.9,9.4,15.5,14.3c0.6,4.9,2.9,15.5,5.9,17.4c3,1.9,11.2,2.4,11.2,2.4s2.3-2.3,4-1.8c1.7,0.5,9.6,3.1,9.6,3.1s1,6,1.4,7.8
					c0.4,1.9-4,1.5-7.9,0c0,0-1.8,3.6-4.8,3.1c-3-0.5-11.9-4.4-18.1-4.2c-6.3,0.3-18.4-5.4-18.4-5.4s-7.9,14.4-10.6,15.8
					c-2.7,1.4-5.4,3.4-5.4,3.4s4.3,4.8,1.2,8.6c-3.1,3.8-6.8,8.8-15.2,11.1c-8.4,2.3-14.8,0.2-15.4,6.5c-0.6,6.2,1.3,6.4,1.3,6.4
					s4,1.5,7.3,3.3C138.7,204,141.9,209.5,137.3,209.9z"/>
				<path class="st17" d="M128.5,156.9c0,0-2.5,3.8,1.7,11.6"/>
				<path class="st17" d="M151.6,155.6c0,0,0.4,5.6,4.6,10.8"/>
				<path class="st17" d="M127.7,205.3c0,0,5.5,0.1,3.1,3.9"/>
				<path class="st17" d="M134.1,205.3c0,0,1.6,1.4,1.2,4.8"/>
				<path class="st17" d="M165,203.2c0,0-2.3,5.6,3.4,7.6"/>
				<path class="st17" d="M170.4,204.2c0,0,4.2-0.7,3.2,4.1"/>
				<path class="st17" d="M162.9,137.7c0,0,9.4,9.9,13.6-5.4"/>
				<path class="st17" d="M202.3,147.3c0,0,1.3,1.1,4.2-2.5"/>
				<path class="st17" d="M210.1,149.4c0,0,8.5-3.8,7.9,5.5"/>
				<path class="st17" d="M209,153.8c0,0,2.3-1.9,4.6,0"/>
				<path class="st17" d="M118.7,67c0,0,3.1,2.6,4.4-2.2"/>
				<g>
					<defs>
						<path id="SVGID_21_" d="M210.1,81.7c0,0-13-3.4-15.7-6c-2.7-2.6-6.6,1-6.6,1s2.4-3,0.5-6.1c-1.9-3.1-13.8-6.3-13.8-6.3
							s-1.3-7-7.2-4.8c-5.9,2.3-9.7,8.4-9.7,8.4l-1.4,4.7c0,0-5.9,6.6-6.8,8.7c-0.8,2.1,0,10.8,0,10.8l-3.1,11.4
							c0,0-0.3,9.7,0.2,13.2c0.5,3.5,7.4-1.6,10.4-3.3c0,0,2.5,13.6,7.3,16.8l3.7,1l-1-13.3l-2.3-2.9c0,0,3.7-0.1,5.2,1.5
							c1.5,1.6,6.7,4.8,6.7,4.8l0.8-1.3c0,0,1.2,3.3,2.6,5.8c1.4,2.5,1.4,2.5,1.4,2.5l0.6-2.9c0,0,4.2,3.3,5.4,5
							c1.3,1.7,4.6-1.6,4.6-1.6s6.9,0.6,8.3,5.4c1.5,4.8,0,4.2,0,5.4l6.9-2.4l0.2-11.7c0,0-3.9-13.4-14-14.3l-2.7-4.7
							c0,0,1.6-1.3,5-0.2c3.4,1,7.3,4.7,8.6,3.7c1.3-0.9,2.7-5.3,2.1-7.9c-0.6-2.5-0.6-2.5-0.6-2.5l-1.5,2.5c0,0-4,0.1-6.7-2.1
							c-2.7-2.1-0.8-4.6,0.2-5.1c1-0.4,8.3,0.5,10.2-1.2c1.9-1.7,0.8-8,0.8-8L210.1,81.7z"/>
					</defs>
					<use xlink:href="#SVGID_21_"  style="overflow:visible;fill:#EFCE31;"/>
					<clipPath id="SVGID_22_">
						<use xlink:href="#SVGID_21_"  style="overflow:visible;"/>
					</clipPath>
					<path class="st19" d="M140.3,112.1c1.9,9.7,5.9,16.4,15.3,20.5c8.3,3.6,17.4,5.1,26,7.7c10.6,3.3,41.2,12.8,40.5-7.3
						c-0.2-5.2-2.1-13.4-6.5-16.8c-3.2-2.5-8.5-1.9-12.3-2.9c-3-0.7-5.4-2.2-8.1-3.4c-1.8-0.8-3.5-1.2-4.8-2.9
						c-1.6-2.1-1.6-4.6-2.5-7c-0.9-2.4-2.8-4.3-3.9-6.6c-1-2-1.4-4.4-3-6c-1.5-1.5-3.7-2.3-5.4-3.5c-1.6-1-4-2.1-5-3.8
						c-1.5-2.6,1.6-4.4,3.7-5.3c0.7-0.3,2.4-1.1,3.2-0.8c0.8,0.3,0.6,0.8,1,1.5c2.1,3,6.4,3.8,9.9,3c8.1-1.9,2.6-11.1-0.5-15.1
						c-6.3-8.2-15.5-13.2-25.8-9.1c-14.6,5.8-22.2,22.4-23,37.2c-0.5,8.4,0.6,17.9,5,25.3"/>
					
						<use xlink:href="#SVGID_21_"  style="overflow:visible;fill:none;stroke:#3A1900;stroke-width:1.2;stroke-linecap:round;stroke-linejoin:round;stroke-miterlimit:10;"/>
				</g>
				<path class="st17" d="M181.4,77.4c0,0,2.8,4.3,6.3-0.8"/>
				<path class="st17" d="M174.6,64.3c0,0,5.8,3.5,6.3,6.7"/>
				<path class="st17" d="M157.7,67.9c0,0,4,5.6,7.9,5.1"/>
				<path class="st17" d="M146.5,115.2l3.9-7.9c0,0-1.5-6,0.8-10c2.3-4,3-11.2,3-11.2s4.6-5.6,6.3-5.4"/>
				<path class="st17" d="M149.2,83.4c0,0,6.2-10.3,12.9-9.2"/>
				<path class="st17" d="M169.3,59.1c0,0-5.2,4-1,8c4.2,3.9,6.3,2.7,6.3,2.7"/>
				<line class="st17" x1="160.7" y1="64.1" x2="164.8" y2="69.7"/>
				<path class="st17" d="M165,86.8c0,0-4.2,12.6-2.1,15.5c2.1,2.9,4.4,9.8,4.4,9.8l2.6,4.6"/>
				<path class="st17" d="M157.7,99.4c0,0-3.4,3-2,6.2c1.4,3.1,1.4,7.9,1.4,7.9"/>
				<path class="st17" d="M161.6,106.7c0,0-3.3,13.9,0,20.5"/>
				<path class="st17" d="M178.5,76.8c0,0-2.9-3.9-5.5-3.2c-2.6,0.7-2.4,6.3-2.4,6.3l7.1,4.2"/>
				<path class="st17" d="M168.4,93.9c0,0,3.1,4.1,2,8.3c-1.1,4.2,0.8,9.6,0.8,9.6s5.9,8.4,10.8,9.2"/>
				<path class="st17" d="M195,117.3c0,0,6.9-1.6,11.2,5"/>
				<path class="st17" d="M175.2,89.1c0,0,2.9,6.3,2.5,12.6c-0.4,6.3,4.8,8.6,9.4,11.8"/>
				<path class="st11" d="M67.6,79.5"/>
				<path class="st17" d="M164.5,76.8c0,0,3.8,1.5,4.2-1.7"/>
				<path class="st1" d="M192.9,81.7c0,0,2.6-0.9,3.4-1.9l1,2.4C197.3,82.2,195.6,81.7,192.9,81.7z"/>
				<path class="st17" d="M190.5,86.2c0,0,2.5-1.7,5.6-1.7"/>
				<path class="st20" d="M210.1,81.7c0,0-3.1,2-4.6,2.1c0,0,2.7,0.8,3.4,2.2"/>
			</g>
			<g>
				<g>
					<defs>
						<path id="SVGID_23_" d="M210.1,81.7c0,0-13-3.4-15.7-6c-2.7-2.6-6.6,1-6.6,1s2.4-3,0.5-6.1c-1.9-3.1-13.8-6.3-13.8-6.3
							s-1.3-7-7.2-4.8c-5.9,2.3-9.7,8.4-9.7,8.4l-1.4,4.7c0,0-5.9,6.6-6.8,8.7c-0.8,2.1,0,10.8,0,10.8l-3.1,11.4
							c0,0-0.3,9.7,0.2,13.2c0.5,3.5,7.4-1.6,10.4-3.3c0,0,2.5,13.6,7.3,16.8l3.7,1l-1-13.3l-2.3-2.9c0,0,3.7-0.1,5.2,1.5
							c1.5,1.6,6.7,4.8,6.7,4.8l0.8-1.3c0,0,1.2,3.3,2.6,5.8c1.4,2.5,1.4,2.5,1.4,2.5l0.6-2.9c0,0,4.2,3.3,5.4,5
							c1.3,1.7,4.6-1.6,4.6-1.6s6.9,0.6,8.3,5.4c1.5,4.8,0,4.2,0,5.4l6.9-2.4l0.2-11.7c0,0-3.9-13.4-14-14.3l-2.7-4.7
							c0,0,1.6-1.3,5-0.2c3.4,1,7.3,4.7,8.6,3.7c1.3-0.9,2.7-5.3,2.1-7.9c-0.6-2.5-0.6-2.5-0.6-2.5l-1.5,2.5c0,0-4,0.1-6.7-2.1
							c-2.7-2.1-0.8-4.6,0.2-5.1c1-0.4,8.3,0.5,10.2-1.2c1.9-1.7,0.8-8,0.8-8L210.1,81.7z"/>
					</defs>
					<clipPath id="SVGID_24_">
						<use xlink:href="#SVGID_23_"  style="overflow:visible;"/>
					</clipPath>
				</g>
			</g>
		</g>
	</g>
	<g>
		
			<image style="overflow:visible;opacity:0.75;" width="415" height="384" xlink:href="39FE9C89.png"  transform="matrix(1 0 0 1 121.3779 -49.2656)">
		</image>
		<g>
			<g>
				<defs>
					<path id="SVGID_25_" d="M361.5,20.9c0,0-8.7-10.3-25.4,1.3c-16.7,11.5-41.3,41.6-79,39.1l-18.1,18.5v131h126.8
						c0,0-52.3-129.7,32.7-156.2C398.3,54.5,391.4,54.3,361.5,20.9z"/>
				</defs>
				<clipPath id="SVGID_26_">
					<use xlink:href="#SVGID_25_"  style="overflow:visible;"/>
				</clipPath>
			</g>
			<g>
				<defs>
					<path id="SVGID_27_" d="M361.5,20.9c0,0-8.7-10.3-25.4,1.3c-16.7,11.5-41.3,41.6-79,39.1l-18.1,18.5v131h126.8
						c0,0-52.3-129.7,32.7-156.2C398.3,54.5,391.4,54.3,361.5,20.9z"/>
				</defs>
				<use xlink:href="#SVGID_27_"  style="overflow:visible;fill:#336535;"/>
				<clipPath id="SVGID_28_">
					<use xlink:href="#SVGID_27_"  style="overflow:visible;"/>
				</clipPath>
				<g class="st21">
					<g>
						<polygon class="st22" points="309,-33.5 307.2,-27 313.7,-28.8 315.5,-35.3 						"/>
					</g>
					<g>
						<polygon class="st22" points="323.8,-18.7 322,-12.2 328.5,-14 330.3,-20.5 						"/>
					</g>
					<g>
						<polygon class="st22" points="338.5,-4 336.7,2.5 343.2,0.7 345,-5.7 						"/>
					</g>
					<g>
						<polygon class="st22" points="353.3,10.8 351.5,17.3 358,15.5 359.8,9 						"/>
					</g>
					<g>
						<polygon class="st22" points="368,25.6 366.3,32 372.7,30.3 374.5,23.8 						"/>
					</g>
					<g>
						<polygon class="st22" points="382.8,40.3 381,46.8 387.5,45 389.3,38.5 						"/>
					</g>
					<g>
						<polygon class="st22" points="397.6,55.1 395.8,61.6 402.3,59.8 404.1,53.3 						"/>
					</g>
					<g>
						<polygon class="st22" points="412.3,69.8 410.5,76.3 417,74.5 418.8,68 						"/>
					</g>
					<g>
						<polygon class="st22" points="427.1,84.6 425.3,91.1 431.8,89.3 433.6,82.8 						"/>
					</g>
					<g>
						<polygon class="st22" points="441.8,99.4 440.1,105.8 446.5,104.1 448.3,97.6 						"/>
					</g>
					<g>
						<polygon class="st22" points="456.6,114.1 454.8,120.6 461.3,118.8 463.1,112.3 						"/>
					</g>
					<g>
						<polygon class="st22" points="471.4,128.9 469.6,135.4 476.1,133.6 477.9,127.1 						"/>
					</g>
					<g>
						<polygon class="st22" points="486.1,143.6 484.3,150.1 490.8,148.3 492.6,141.8 						"/>
					</g>
					<g>
						<polygon class="st22" points="500.9,158.4 499.1,164.9 505.6,163.1 507.4,156.6 						"/>
					</g>
					<g>
						<polygon class="st22" points="515.6,173.2 513.9,179.6 520.3,177.9 522.1,171.4 						"/>
					</g>
					<g>
						<polygon class="st22" points="288.7,-28 286.9,-21.5 293.4,-23.3 295.2,-29.8 						"/>
					</g>
					<g>
						<polygon class="st22" points="303.4,-13.3 301.6,-6.8 308.1,-8.6 309.9,-15 						"/>
					</g>
					<g>
						<polygon class="st22" points="318.2,1.5 316.4,8 322.9,6.2 324.7,-0.3 						"/>
					</g>
					<g>
						<polygon class="st22" points="332.9,16.3 331.2,22.7 337.6,21 339.4,14.5 						"/>
					</g>
					<g>
						<polygon class="st22" points="347.7,31 345.9,37.5 352.4,35.7 354.2,29.2 						"/>
					</g>
					<g>
						<polygon class="st22" points="362.5,45.8 360.7,52.3 367.2,50.5 369,44 						"/>
					</g>
					<g>
						<polygon class="st22" points="377.2,60.5 375.4,67 381.9,65.2 383.7,58.7 						"/>
					</g>
					<g>
						<polygon class="st22" points="392,75.3 390.2,81.8 396.7,80 398.5,73.5 						"/>
					</g>
					<g>
						<polygon class="st22" points="406.7,90.1 405,96.5 411.4,94.8 413.2,88.3 						"/>
					</g>
					<g>
						<polygon class="st22" points="421.5,104.8 419.7,111.3 426.2,109.5 428,103 						"/>
					</g>
					<g>
						<polygon class="st22" points="436.3,119.6 434.5,126.1 441,124.3 442.8,117.8 						"/>
					</g>
					<g>
						<polygon class="st22" points="451,134.3 449.2,140.8 455.7,139 457.5,132.5 						"/>
					</g>
					<g>
						<polygon class="st22" points="465.8,149.1 464,155.6 470.5,153.8 472.3,147.3 						"/>
					</g>
					<g>
						<polygon class="st22" points="480.5,163.9 478.8,170.3 485.2,168.6 487,162.1 						"/>
					</g>
					<g>
						<polygon class="st22" points="495.3,178.6 493.5,185.1 500,183.3 501.8,176.8 						"/>
					</g>
					<g>
						<polygon class="st22" points="283.8,-11 282,-4.5 288.5,-6.3 290.3,-12.8 						"/>
					</g>
					<g>
						<polygon class="st22" points="298.6,3.7 296.8,10.2 303.3,8.4 305.1,2 						"/>
					</g>
					<g>
						<polygon class="st22" points="313.3,18.5 311.5,25 318,23.2 319.8,16.7 						"/>
					</g>
					<g>
						<polygon class="st22" points="328.1,33.3 326.3,39.7 332.8,38 334.6,31.5 						"/>
					</g>
					<g>
						<polygon class="st22" points="342.8,48 341.1,54.5 347.5,52.7 349.3,46.2 						"/>
					</g>
					<g>
						<polygon class="st22" points="357.6,62.8 355.8,69.3 362.3,67.5 364.1,61 						"/>
					</g>
					<g>
						<polygon class="st22" points="372.4,77.5 370.6,84 377.1,82.2 378.9,75.7 						"/>
					</g>
					<g>
						<polygon class="st22" points="387.1,92.3 385.3,98.8 391.8,97 393.6,90.5 						"/>
					</g>
					<g>
						<polygon class="st22" points="401.9,107.1 400.1,113.5 406.6,111.8 408.4,105.3 						"/>
					</g>
					<g>
						<polygon class="st22" points="416.6,121.8 414.9,128.3 421.3,126.5 423.1,120 						"/>
					</g>
					<g>
						<polygon class="st22" points="431.4,136.6 429.6,143.1 436.1,141.3 437.9,134.8 						"/>
					</g>
					<g>
						<polygon class="st22" points="446.2,151.3 444.4,157.8 450.9,156 452.7,149.5 						"/>
					</g>
					<g>
						<polygon class="st22" points="460.9,166.1 459.1,172.6 465.6,170.8 467.4,164.3 						"/>
					</g>
					<g>
						<polygon class="st22" points="475.7,180.9 473.9,187.3 480.4,185.6 482.2,179.1 						"/>
					</g>
					<g>
						<polygon class="st22" points="490.4,195.6 488.7,202.1 495.1,200.3 496.9,193.8 						"/>
					</g>
					<g>
						<polygon class="st22" points="263.5,-5.6 261.7,0.9 268.2,-0.9 270,-7.4 						"/>
					</g>
					<g>
						<polygon class="st22" points="278.2,9.2 276.4,15.7 282.9,13.9 284.7,7.4 						"/>
					</g>
					<g>
						<polygon class="st22" points="293,24 291.2,30.4 297.7,28.7 299.5,22.2 						"/>
					</g>
					<g>
						<polygon class="st22" points="307.7,38.7 306,45.2 312.4,43.4 314.2,36.9 						"/>
					</g>
					<g>
						<polygon class="st22" points="322.5,53.5 320.7,60 327.2,58.2 329,51.7 						"/>
					</g>
					<g>
						<polygon class="st22" points="337.3,68.2 335.5,74.7 342,72.9 343.8,66.4 						"/>
					</g>
					<g>
						<polygon class="st22" points="352,83 350.2,89.5 356.7,87.7 358.5,81.2 						"/>
					</g>
					<g>
						<polygon class="st22" points="366.8,97.8 365,104.2 371.5,102.5 373.3,96 						"/>
					</g>
					<g>
						<polygon class="st22" points="381.5,112.5 379.8,119 386.2,117.2 388,110.7 						"/>
					</g>
					<g>
						<polygon class="st22" points="396.3,127.3 394.5,133.8 401,132 402.8,125.5 						"/>
					</g>
					<g>
						<polygon class="st22" points="411.1,142 409.3,148.5 415.8,146.7 417.6,140.2 						"/>
					</g>
					<g>
						<polygon class="st22" points="425.8,156.8 424,163.3 430.5,161.5 432.3,155 						"/>
					</g>
					<g>
						<polygon class="st22" points="440.6,171.5 438.8,178 445.3,176.3 447.1,169.8 						"/>
					</g>
					<g>
						<polygon class="st22" points="455.3,186.3 453.6,192.8 460,191 461.8,184.5 						"/>
					</g>
					<g>
						<polygon class="st22" points="470.1,201.1 468.3,207.6 474.8,205.8 476.6,199.3 						"/>
					</g>
					<g>
						<polygon class="st22" points="258.6,11.4 256.8,17.9 263.3,16.1 265.1,9.6 						"/>
					</g>
					<g>
						<polygon class="st22" points="273.4,26.2 271.6,32.7 278.1,30.9 279.9,24.4 						"/>
					</g>
					<g>
						<polygon class="st22" points="288.1,41 286.3,47.4 292.8,45.7 294.6,39.2 						"/>
					</g>
					<g>
						<polygon class="st22" points="302.9,55.7 301.1,62.2 307.6,60.4 309.4,53.9 						"/>
					</g>
					<g>
						<polygon class="st22" points="317.6,70.5 315.9,77 322.3,75.2 324.1,68.7 						"/>
					</g>
					<g>
						<polygon class="st22" points="332.4,85.2 330.6,91.7 337.1,89.9 338.9,83.4 						"/>
					</g>
					<g>
						<polygon class="st22" points="347.2,100 345.4,106.5 351.9,104.7 353.7,98.2 						"/>
					</g>
					<g>
						<polygon class="st22" points="361.9,114.8 360.1,121.2 366.6,119.5 368.4,113 						"/>
					</g>
					<g>
						<polygon class="st22" points="376.7,129.5 374.9,136 381.4,134.2 383.2,127.7 						"/>
					</g>
					<g>
						<polygon class="st22" points="391.4,144.3 389.7,150.8 396.1,149 397.9,142.5 						"/>
					</g>
					<g>
						<polygon class="st22" points="406.2,159 404.4,165.5 410.9,163.7 412.7,157.2 						"/>
					</g>
					<g>
						<polygon class="st22" points="421,173.8 419.2,180.3 425.7,178.5 427.5,172 						"/>
					</g>
					<g>
						<polygon class="st22" points="435.7,188.6 433.9,195 440.4,193.3 442.2,186.8 						"/>
					</g>
					<g>
						<polygon class="st22" points="450.5,203.3 448.7,209.8 455.2,208 457,201.5 						"/>
					</g>
					<g>
						<polygon class="st22" points="465.2,218.1 463.5,224.6 469.9,222.8 471.7,216.3 						"/>
					</g>
					<g>
						<polygon class="st22" points="238.3,16.9 236.5,23.4 243,21.6 244.8,15.1 						"/>
					</g>
					<g>
						<polygon class="st22" points="253,31.7 251.2,38.1 257.7,36.4 259.5,29.9 						"/>
					</g>
					<g>
						<polygon class="st22" points="267.8,46.4 266,52.9 272.5,51.1 274.3,44.6 						"/>
					</g>
					<g>
						<polygon class="st22" points="282.5,61.2 280.8,67.7 287.2,65.9 289,59.4 						"/>
					</g>
					<g>
						<polygon class="st22" points="297.3,75.9 295.5,82.4 302,80.6 303.8,74.1 						"/>
					</g>
					<g>
						<polygon class="st22" points="312.1,90.7 310.3,97.2 316.8,95.4 318.6,88.9 						"/>
					</g>
					<g>
						<polygon class="st22" points="326.8,105.5 325,111.9 331.5,110.2 333.3,103.7 						"/>
					</g>
					<g>
						<polygon class="st22" points="341.6,120.2 339.8,126.7 346.3,124.9 348.1,118.4 						"/>
					</g>
					<g>
						<polygon class="st22" points="356.3,135 354.6,141.5 361,139.7 362.8,133.2 						"/>
					</g>
					<g>
						<polygon class="st22" points="371.1,149.7 369.3,156.2 375.8,154.4 377.6,147.9 						"/>
					</g>
					<g>
						<polygon class="st22" points="385.9,164.5 384.1,171 390.6,169.2 392.4,162.7 						"/>
					</g>
					<g>
						<polygon class="st22" points="400.6,179.2 398.8,185.7 405.3,183.9 407.1,177.5 						"/>
					</g>
					<g>
						<polygon class="st22" points="415.4,194 413.6,200.5 420.1,198.7 421.9,192.2 						"/>
					</g>
					<g>
						<polygon class="st22" points="430.1,208.8 428.4,215.3 434.8,213.5 436.6,207 						"/>
					</g>
					<g>
						<polygon class="st22" points="444.9,223.5 443.1,230 449.6,228.2 451.4,221.7 						"/>
					</g>
					<g>
						<polygon class="st22" points="233.4,33.9 231.6,40.4 238.1,38.6 239.9,32.1 						"/>
					</g>
					<g>
						<polygon class="st22" points="248.2,48.7 246.4,55.1 252.9,53.4 254.7,46.9 						"/>
					</g>
					<g>
						<polygon class="st22" points="262.9,63.4 261.1,69.9 267.6,68.1 269.4,61.6 						"/>
					</g>
					<g>
						<polygon class="st22" points="277.7,78.2 275.9,84.7 282.4,82.9 284.2,76.4 						"/>
					</g>
					<g>
						<polygon class="st22" points="292.4,92.9 290.7,99.4 297.1,97.6 298.9,91.1 						"/>
					</g>
					<g>
						<polygon class="st22" points="307.2,107.7 305.4,114.2 311.9,112.4 313.7,105.9 						"/>
					</g>
					<g>
						<polygon class="st22" points="322,122.5 320.2,128.9 326.7,127.2 328.5,120.7 						"/>
					</g>
					<g>
						<polygon class="st22" points="336.7,137.2 334.9,143.7 341.4,141.9 343.2,135.4 						"/>
					</g>
					<g>
						<polygon class="st22" points="351.5,152 349.7,158.5 356.2,156.7 358,150.2 						"/>
					</g>
					<g>
						<polygon class="st22" points="366.2,166.7 364.5,173.2 370.9,171.4 372.7,164.9 						"/>
					</g>
					<g>
						<polygon class="st22" points="381,181.5 379.2,188 385.7,186.2 387.5,179.7 						"/>
					</g>
					<g>
						<polygon class="st22" points="395.8,196.2 394,202.7 400.5,200.9 402.3,194.5 						"/>
					</g>
					<g>
						<polygon class="st22" points="410.5,211 408.7,217.5 415.2,215.7 417,209.2 						"/>
					</g>
					<g>
						<polygon class="st22" points="425.3,225.8 423.5,232.3 430,230.5 431.8,224 						"/>
					</g>
					<g>
						<polygon class="st22" points="440,240.5 438.3,247 444.7,245.2 446.5,238.7 						"/>
					</g>
					<g>
						<polygon class="st22" points="213.1,39.4 211.3,45.8 217.8,44.1 219.6,37.6 						"/>
					</g>
					<g>
						<polygon class="st22" points="227.8,54.1 226,60.6 232.5,58.8 234.3,52.3 						"/>
					</g>
					<g>
						<polygon class="st22" points="242.6,68.9 240.8,75.4 247.3,73.6 249.1,67.1 						"/>
					</g>
					<g>
						<polygon class="st22" points="257.3,83.6 255.6,90.1 262.1,88.3 263.8,81.8 						"/>
					</g>
					<g>
						<polygon class="st22" points="272.1,98.4 270.3,104.9 276.8,103.1 278.6,96.6 						"/>
					</g>
					<g>
						<polygon class="st22" points="286.9,113.2 285.1,119.6 291.6,117.9 293.4,111.4 						"/>
					</g>
					<g>
						<polygon class="st22" points="301.6,127.9 299.8,134.4 306.3,132.6 308.1,126.1 						"/>
					</g>
					<g>
						<polygon class="st22" points="316.4,142.7 314.6,149.2 321.1,147.4 322.9,140.9 						"/>
					</g>
					<g>
						<polygon class="st22" points="331.1,157.4 329.4,163.9 335.8,162.1 337.6,155.6 						"/>
					</g>
					<g>
						<polygon class="st22" points="345.9,172.2 344.1,178.7 350.6,176.9 352.4,170.4 						"/>
					</g>
					<g>
						<polygon class="st22" points="360.7,186.9 358.9,193.4 365.4,191.6 367.2,185.2 						"/>
					</g>
					<g>
						<polygon class="st22" points="375.4,201.7 373.6,208.2 380.1,206.4 381.9,199.9 						"/>
					</g>
					<g>
						<polygon class="st22" points="390.2,216.5 388.4,223 394.9,221.2 396.7,214.7 						"/>
					</g>
					<g>
						<polygon class="st22" points="404.9,231.2 403.2,237.7 409.6,235.9 411.4,229.4 						"/>
					</g>
					<g>
						<polygon class="st22" points="419.7,246 417.9,252.5 424.4,250.7 426.2,244.2 						"/>
					</g>
					<g>
						<polygon class="st22" points="208.2,56.4 206.4,62.8 212.9,61.1 214.7,54.6 						"/>
					</g>
					<g>
						<polygon class="st22" points="223,71.1 221.2,77.6 227.7,75.8 229.5,69.3 						"/>
					</g>
					<g>
						<polygon class="st22" points="237.7,85.9 235.9,92.4 242.4,90.6 244.2,84.1 						"/>
					</g>
					<g>
						<polygon class="st22" points="252.5,100.6 250.7,107.1 257.2,105.3 259,98.8 						"/>
					</g>
					<g>
						<polygon class="st22" points="267.3,115.4 265.5,121.9 272,120.1 273.7,113.6 						"/>
					</g>
					<g>
						<polygon class="st22" points="282,130.2 280.2,136.6 286.7,134.9 288.5,128.4 						"/>
					</g>
					<g>
						<polygon class="st22" points="296.8,144.9 295,151.4 301.5,149.6 303.3,143.1 						"/>
					</g>
					<g>
						<polygon class="st22" points="311.5,159.7 309.7,166.2 316.2,164.4 318,157.9 						"/>
					</g>
					<g>
						<polygon class="st22" points="326.3,174.4 324.5,180.9 331,179.1 332.8,172.6 						"/>
					</g>
					<g>
						<polygon class="st22" points="341,189.2 339.3,195.7 345.7,193.9 347.5,187.4 						"/>
					</g>
					<g>
						<polygon class="st22" points="355.8,203.9 354,210.4 360.5,208.6 362.3,202.2 						"/>
					</g>
					<g>
						<polygon class="st22" points="370.6,218.7 368.8,225.2 375.3,223.4 377.1,216.9 						"/>
					</g>
					<g>
						<polygon class="st22" points="385.3,233.5 383.5,240 390,238.2 391.8,231.7 						"/>
					</g>
					<g>
						<polygon class="st22" points="400.1,248.2 398.3,254.7 404.8,252.9 406.6,246.4 						"/>
					</g>
					<g>
						<polygon class="st22" points="414.8,263 413.1,269.5 419.5,267.7 421.3,261.2 						"/>
					</g>
					<g>
						<polygon class="st22" points="187.9,61.8 186.1,68.3 192.6,66.5 194.4,60 						"/>
					</g>
					<g>
						<polygon class="st22" points="202.6,76.6 200.8,83.1 207.3,81.3 209.1,74.8 						"/>
					</g>
					<g>
						<polygon class="st22" points="217.4,91.3 215.6,97.8 222.1,96 223.9,89.5 						"/>
					</g>
					<g>
						<polygon class="st22" points="232.2,106.1 230.4,112.6 236.9,110.8 238.6,104.3 						"/>
					</g>
					<g>
						<polygon class="st22" points="246.9,120.8 245.1,127.3 251.6,125.5 253.4,119.1 						"/>
					</g>
					<g>
						<polygon class="st22" points="261.7,135.6 259.9,142.1 266.4,140.3 268.2,133.8 						"/>
					</g>
					<g>
						<polygon class="st22" points="276.4,150.4 274.6,156.9 281.1,155.1 282.9,148.6 						"/>
					</g>
					<g>
						<polygon class="st22" points="291.2,165.1 289.4,171.6 295.9,169.8 297.7,163.3 						"/>
					</g>
					<g>
						<polygon class="st22" points="305.9,179.9 304.2,186.4 310.6,184.6 312.4,178.1 						"/>
					</g>
					<g>
						<polygon class="st22" points="320.7,194.6 318.9,201.1 325.4,199.3 327.2,192.9 						"/>
					</g>
					<g>
						<polygon class="st22" points="335.5,209.4 333.7,215.9 340.2,214.1 342,207.6 						"/>
					</g>
					<g>
						<polygon class="st22" points="350.2,224.2 348.4,230.7 354.9,228.9 356.7,222.4 						"/>
					</g>
					<g>
						<polygon class="st22" points="365,238.9 363.2,245.4 369.7,243.6 371.5,237.1 						"/>
					</g>
					<g>
						<polygon class="st22" points="379.7,253.7 378,260.2 384.4,258.4 386.2,251.9 						"/>
					</g>
					<g>
						<polygon class="st22" points="394.5,268.4 392.7,274.9 399.2,273.1 401,266.7 						"/>
					</g>
					<g>
						<polygon class="st22" points="183,78.8 181.2,85.3 187.7,83.5 189.5,77 						"/>
					</g>
					<g>
						<polygon class="st22" points="197.8,93.6 196,100.1 202.5,98.3 204.3,91.8 						"/>
					</g>
					<g>
						<polygon class="st22" points="212.5,108.3 210.7,114.8 217.2,113 219,106.5 						"/>
					</g>
					<g>
						<polygon class="st22" points="227.3,123.1 225.5,129.6 232,127.8 233.8,121.3 						"/>
					</g>
					<g>
						<polygon class="st22" points="242.1,137.8 240.3,144.3 246.8,142.5 248.5,136.1 						"/>
					</g>
					<g>
						<polygon class="st22" points="256.8,152.6 255,159.1 261.5,157.3 263.3,150.8 						"/>
					</g>
					<g>
						<polygon class="st22" points="271.6,167.4 269.8,173.9 276.3,172.1 278.1,165.6 						"/>
					</g>
					<g>
						<polygon class="st22" points="286.3,182.1 284.5,188.6 291,186.8 292.8,180.3 						"/>
					</g>
					<g>
						<polygon class="st22" points="301.1,196.9 299.3,203.4 305.8,201.6 307.6,195.1 						"/>
					</g>
					<g>
						<polygon class="st22" points="315.8,211.6 314.1,218.1 320.5,216.3 322.3,209.9 						"/>
					</g>
					<g>
						<polygon class="st22" points="330.6,226.4 328.8,232.9 335.3,231.1 337.1,224.6 						"/>
					</g>
					<g>
						<polygon class="st22" points="345.4,241.2 343.6,247.7 350.1,245.9 351.9,239.4 						"/>
					</g>
					<g>
						<polygon class="st22" points="360.1,255.9 358.3,262.4 364.8,260.6 366.6,254.1 						"/>
					</g>
					<g>
						<polygon class="st22" points="374.9,270.7 373.1,277.2 379.6,275.4 381.4,268.9 						"/>
					</g>
					<g>
						<polygon class="st22" points="389.6,285.4 387.9,291.9 394.3,290.1 396.1,283.7 						"/>
					</g>
					<g>
						<polygon class="st22" points="162.7,84.3 160.9,90.8 167.4,89 169.2,82.5 						"/>
					</g>
					<g>
						<polygon class="st22" points="177.4,99 175.6,105.5 182.1,103.7 183.9,97.2 						"/>
					</g>
					<g>
						<polygon class="st22" points="192.2,113.8 190.4,120.3 196.9,118.5 198.7,112 						"/>
					</g>
					<g>
						<polygon class="st22" points="207,128.5 205.2,135 211.7,133.2 213.4,126.8 						"/>
					</g>
					<g>
						<polygon class="st22" points="221.7,143.3 219.9,149.8 226.4,148 228.2,141.5 						"/>
					</g>
					<g>
						<polygon class="st22" points="236.5,158.1 234.7,164.6 241.2,162.8 243,156.3 						"/>
					</g>
					<g>
						<polygon class="st22" points="251.2,172.8 249.4,179.3 255.9,177.5 257.7,171 						"/>
					</g>
					<g>
						<polygon class="st22" points="266,187.6 264.2,194.1 270.7,192.3 272.5,185.8 						"/>
					</g>
					<g>
						<polygon class="st22" points="280.7,202.3 279,208.8 285.4,207 287.2,200.6 						"/>
					</g>
					<g>
						<polygon class="st22" points="295.5,217.1 293.7,223.6 300.2,221.8 302,215.3 						"/>
					</g>
					<g>
						<polygon class="st22" points="310.3,231.9 308.5,238.4 315,236.6 316.8,230.1 						"/>
					</g>
					<g>
						<polygon class="st22" points="325,246.6 323.2,253.1 329.7,251.3 331.5,244.8 						"/>
					</g>
					<g>
						<polygon class="st22" points="339.8,261.4 338,267.9 344.5,266.1 346.3,259.6 						"/>
					</g>
					<g>
						<polygon class="st22" points="354.5,276.1 352.8,282.6 359.2,280.8 361,274.4 						"/>
					</g>
					<g>
						<polygon class="st22" points="369.3,290.9 367.5,297.4 374,295.6 375.8,289.1 						"/>
					</g>
					<g>
						<polygon class="st22" points="157.8,101.3 156,107.8 162.5,106 164.3,99.5 						"/>
					</g>
					<g>
						<polygon class="st22" points="172.6,116 170.8,122.5 177.3,120.7 179.1,114.2 						"/>
					</g>
					<g>
						<polygon class="st22" points="187.3,130.8 185.5,137.3 192,135.5 193.8,129 						"/>
					</g>
					<g>
						<polygon class="st22" points="202.1,145.5 200.3,152 206.8,150.2 208.6,143.8 						"/>
					</g>
					<g>
						<polygon class="st22" points="216.9,160.3 215.1,166.8 221.6,165 223.3,158.5 						"/>
					</g>
					<g>
						<polygon class="st22" points="231.6,175.1 229.8,181.6 236.3,179.8 238.1,173.3 						"/>
					</g>
					<g>
						<polygon class="st22" points="246.4,189.8 244.6,196.3 251.1,194.5 252.9,188 						"/>
					</g>
					<g>
						<polygon class="st22" points="261.1,204.6 259.3,211.1 265.8,209.3 267.6,202.8 						"/>
					</g>
					<g>
						<polygon class="st22" points="275.9,219.3 274.1,225.8 280.6,224 282.4,217.6 						"/>
					</g>
					<g>
						<polygon class="st22" points="290.6,234.1 288.9,240.6 295.3,238.8 297.1,232.3 						"/>
					</g>
					<g>
						<polygon class="st22" points="305.4,248.9 303.6,255.4 310.1,253.6 311.9,247.1 						"/>
					</g>
					<g>
						<polygon class="st22" points="320.2,263.6 318.4,270.1 324.9,268.3 326.7,261.8 						"/>
					</g>
					<g>
						<polygon class="st22" points="334.9,278.4 333.1,284.9 339.6,283.1 341.4,276.6 						"/>
					</g>
					<g>
						<polygon class="st22" points="349.7,293.1 347.9,299.6 354.4,297.8 356.2,291.4 						"/>
					</g>
					<g>
						<polygon class="st22" points="364.4,307.9 362.7,314.4 369.1,312.6 370.9,306.1 						"/>
					</g>
					<g>
						<polygon class="st22" points="137.5,106.7 135.7,113.2 142.2,111.4 144,104.9 						"/>
					</g>
					<g>
						<polygon class="st22" points="152.2,121.5 150.4,128 156.9,126.2 158.7,119.7 						"/>
					</g>
					<g>
						<polygon class="st22" points="167,136.2 165.2,142.7 171.7,140.9 173.5,134.5 						"/>
					</g>
					<g>
						<polygon class="st22" points="181.8,151 180,157.5 186.5,155.7 188.2,149.2 						"/>
					</g>
					<g>
						<polygon class="st22" points="196.5,165.8 194.7,172.3 201.2,170.5 203,164 						"/>
					</g>
					<g>
						<polygon class="st22" points="211.3,180.5 209.5,187 216,185.2 217.8,178.7 						"/>
					</g>
					<g>
						<polygon class="st22" points="226,195.3 224.2,201.8 230.7,200 232.5,193.5 						"/>
					</g>
					<g>
						<polygon class="st22" points="240.8,210 239,216.5 245.5,214.7 247.3,208.3 						"/>
					</g>
					<g>
						<polygon class="st22" points="255.5,224.8 253.8,231.3 260.2,229.5 262,223 						"/>
					</g>
					<g>
						<polygon class="st22" points="270.3,239.6 268.5,246.1 275,244.3 276.8,237.8 						"/>
					</g>
					<g>
						<polygon class="st22" points="285.1,254.3 283.3,260.8 289.8,259 291.6,252.5 						"/>
					</g>
					<g>
						<polygon class="st22" points="299.8,269.1 298,275.6 304.5,273.8 306.3,267.3 						"/>
					</g>
					<g>
						<polygon class="st22" points="314.6,283.8 312.8,290.3 319.3,288.5 321.1,282.1 						"/>
					</g>
					<g>
						<polygon class="st22" points="329.3,298.6 327.6,305.1 334,303.3 335.8,296.8 						"/>
					</g>
					<g>
						<polygon class="st22" points="344.1,313.4 342.3,319.8 348.8,318.1 350.6,311.6 						"/>
					</g>
				</g>
				
					<use xlink:href="#SVGID_27_"  style="overflow:visible;fill:none;stroke:#000000;stroke-width:1.2;stroke-linecap:round;stroke-linejoin:round;stroke-miterlimit:10;"/>
			</g>
			<g>
				<defs>
					<path id="SVGID_29_" d="M361.5,20.9c0,0-8.7-10.3-25.4,1.3c-16.7,11.5-41.3,41.6-79,39.1l-18.1,18.5v131h126.8
						c0,0-52.3-129.7,32.7-156.2C398.3,54.5,391.4,54.3,361.5,20.9z"/>
				</defs>
				<clipPath id="SVGID_30_">
					<use xlink:href="#SVGID_29_"  style="overflow:visible;"/>
				</clipPath>
			</g>
		</g>
	</g>
	<g>
		
			<image style="overflow:visible;opacity:0.95;" width="140" height="196" xlink:href="39FE9C8A.png"  transform="matrix(1 0 0 1 229.5014 40.8584)">
		</image>
		<g>
			<g>
				<g>
					<g>
						<path class="st23" d="M268.7,100.1v0.1l-9.5,2.9c0,0-1.4,1.7-6,7.5c-4.6,5.8-3.6,14.2-3.6,14.2c2.7,0.2,2.5,4.4,5.1,4.8
							c2.6,0.4,6.7-1.9,6.7-1.9c-0.6,2.1-4.9,3.8-4.9,3.8h-8.2c-3.1,6.3-7,3.7-7,3.7c6.5-1.9,6.7-21.7,6.7-21.7l8.1-13.9
							c3.4,1.5,7.9,0.6,11.5,0.6C267.9,100.2,268.3,100.2,268.7,100.1z"/>
						<path class="st24" d="M333.8,140.5c10.1,0.6,24,8.7,23.6,22.4c-0.3,11.1-1.4,26.4-8.7,34.8c0.5-7.7-1.8-15.8-6.4-21.8
							c0,0,0,0,0,0c-1.1-1.4-2.3-2.7-3.6-3.8c-0.6-2.1-1.7-4.2-3.6-6.2c-3.8-4.1-6.4-2.9-8.9,0.8c-12.2-1.3-23.2,7.3-24.4,17.3
							c-0.3,2.5,0,5.1,1,7.7c0.3,0.8,0.7,1.6,1.1,2.3c-5.2,1.9-11.6,2.1-20-0.8c-39.8-13.9-29.8-39-29.8-39s2.9-23.4,20.4-38.6
							c0,0,18-5.3,27.2-10.3c5.3-2.9,15.7-6.2,21.8-11.2c13-10.2,7.9-24.9-3.6-28.4c-11.5-3.5-25.7,8.3-25.7,8.3
							c-0.9,0.3-1.8,0.7-2.9,1.3c-2.1,1.3-3.7,1.9-5,2.2c-3.9,0.9-4.6-1.4-4.6-1.4s7.1-6.5,4.6-11.5c4.2-0.7,9.1-7.1,9.3-9
							c0.3-2.1,0.3-2.1,0.3-2.1s16.6-3,28.4,0c11.7,3,23.8,22.5,23.8,22.5s2.6,15-5.5,26.8h0c-16.1,14.3-37,22.6-46.7,25.9
							c0,0,0,0,0,0c-2.1,0.5-3.8,1.1-5.3,1.7c-13.9,5.7-6,16-6,16s10,28.6,20.9,14.5C316.2,146.6,323.6,139.9,333.8,140.5z"/>
						<path class="st25" d="M342.5,176.2c4.5,6,6.7,14,6.2,21.6c-0.4,6.5-2.7,12.7-7.3,17.1c-9.4,8.9-10.5,7.9-10.3,6.6l0.7,0
							C331.8,221.5,352.3,205.4,342.5,176.2z"/>
						<path class="st24" d="M342.5,176.2c9.8,29.1-10.6,45.3-10.6,45.3l-0.7,0c0.1-0.5,0.3-1,0.3-1s5.7-7.6,7.7-16.7
							c-12,3.7-28.6,1.3-35-9.8c0-0.1-0.1-0.1-0.1-0.2c0,0,0.1,0,0.1,0c-0.4-0.8-0.9-1.6-1.2-2.4c-1-2.5-1.3-5.1-1-7.5
							c1.3-10,12.3-18.4,24.4-17.1c1.9,0.2,3.9,0.7,5.8,1.4c2.5,0.9,4.7,2.3,6.7,4C340.1,173.4,341.3,174.7,342.5,176.2z
							 M339.1,203.6c0,0,2.4-10.9-3.5-18.1L339.1,203.6z M335.6,185.6c-1.6-1.9-3.6-3.6-6.3-5.2c0,0-14-2.9-9.7,8.3
							C321.9,195,330.6,192,335.6,185.6z"/>
						<path class="st24" d="M335.6,185.4c5.9,7.3,3.5,18.1,3.5,18.1L335.6,185.4z"/>
						<path class="st24" d="M342.5,102.7c-1.6,2.3-3.6,4.5-6.2,6.4c-15.4,11.6-18.3,14.4-40,19.4c-0.2,0-0.3,0.1-0.5,0.1
							C305.5,125.3,326.5,117,342.5,102.7z"/>
						<path class="st25" d="M297.9,73.7c-1-0.3-2.1-0.3-3.6,0.1c0,0,14.2-11.8,25.7-8.3c11.5,3.5,16.6,18.2,3.6,28.4
							c4.5-3.7,6.7-8.3,2.8-14.3c-9.1-14.1-19.5-5.9-22.1-4.3c-0.6,0.4-1.5,1.3-2.5,2.5l0,0C301.7,77.9,300.9,74.5,297.9,73.7z"/>
						<path class="st24" d="M304.1,193.8c0,0-0.1,0-0.1,0c-0.4-0.7-0.8-1.5-1.1-2.3c-1-2.6-1.3-5.2-1-7.7c-0.3,2.5,0,5,1,7.5
							C303.2,192.2,303.6,193,304.1,193.8z"/>
						<path class="st24" d="M301.7,77.9L301.7,77.9c-3.3,3.8-7.9,10.2-7.9,10.2s-4.4,2.6-9.7,5.4v0c16.3-11,7.6-11.7,7.6-11.7
							c1.3-5.3,4.8-7.5,6.1-8.1C300.9,74.5,301.7,77.9,301.7,77.9z"/>
						<path class="st25" d="M297.9,73.7c-1-0.3-2.1-0.3-3.6,0.1c-0.9,0.3-1.8,0.7-2.9,1.3c-2.1,1.3-3.7,1.9-5,2.2l0,0c0,0,0,0,0,0
							c-0.1,0.2-5,5.9-14.4,8.5h0c-6.2,9.2-20.2,9.2-20.2,9.2c1,2.3,2.5,3.7,4.3,4.4c3.4,1.5,7.9,0.6,11.5,0.6c0.3,0,0.7,0,1.1-0.1
							c3.5-0.6,9.9-3.8,15.4-6.6v0c16.3-11,7.6-11.7,7.6-11.7C293.1,76.4,296.6,74.2,297.9,73.7z"/>
						<path class="st24" d="M274.5,79.8L272,86c-6.2,9.2-20.2,9.2-20.2,9.2s14.8-26.4,17.5-27.9c2.7-1.6,11.7-2.9,16.1-2.6
							c0.3,0,0.6,0,1-0.1c2.5,5-4.6,11.5-4.6,11.5s0.7,2.3,4.6,1.4l0,0c0,0,0,0,0,0c-2.2,2.1-11.8,2.1-11.8,2.1L274.5,79.8z"/>
						<path d="M286.3,77.4c-0.1,0.2-5,5.9-14.4,8.5c1.2-1.7,2-3.7,2.5-6.1l0.1-0.3C274.6,79.5,284.1,79.5,286.3,77.4z"/>
						<path d="M272,86l2.5-6.1C274,82.2,273.1,84.3,272,86L272,86z"/>
					</g>
					<g>
						<path class="st1" d="M304,193.8c0,0.1,0.1,0.1,0.1,0.2c6.4,11,23,13.5,35,9.8c-2,9.1-7.7,16.7-7.7,16.7s-0.2,0.5-0.3,1
							c-0.1,1.3,0.9,2.3,10.3-6.6c4.6-4.3,6.9-10.5,7.3-17.1c0.4-7.6-1.8-15.6-6.2-21.6c-1.1-1.5-2.4-2.9-3.7-4.1
							c-2-1.7-4.2-3.1-6.7-4c-1.9-0.7-3.9-1.2-5.8-1.4c-12.1-1.3-23.1,7.2-24.4,17.1"/>
						<path class="st1" d="M319.6,188.8c-4.3-11.3,9.7-8.3,9.7-8.3c2.7,1.5,4.7,3.3,6.3,5.2C330.6,192,321.9,195,319.6,188.8z"/>
						<path class="st1" d="M339.1,203.6c0,0,2.4-10.9-3.5-18.1"/>
						<path class="st26" d="M286.4,77.4C286.4,77.4,286.4,77.4,286.4,77.4c-0.2,0.2-5,5.9-14.4,8.5"/>
						<path class="st26" d="M274.6,79.5c0,0,9.6,0,11.8-2.1"/>
						<path class="st1" d="M301.7,77.9c0,0-0.9-3.4-3.9-4.2c-1-0.3-2.1-0.3-3.6,0.1c-0.9,0.3-1.8,0.7-2.9,1.3
							c-2.1,1.3-3.7,1.9-5,2.2c-3.9,0.9-4.6-1.4-4.6-1.4s7.1-6.5,4.6-11.5c0,0,0,0,0,0"/>
						<path class="st1" d="M294.3,73.8c0,0,14.2-11.8,25.7-8.3c11.5,3.5,16.6,18.2,3.6,28.4"/>
						<path class="st1" d="M298.3,73.5c0,0-0.2,0.1-0.5,0.2c-1.3,0.6-4.8,2.7-6.1,8.1c0,0,8.7,0.7-7.6,11.7"/>
						<path class="st1" d="M331.8,221.5c0,0,20.5-16.2,10.6-45.3c0-0.1-0.1-0.3-0.1-0.4"/>
						<path class="st26" d="M295.9,128.7c9.7-3.3,30.6-11.6,46.7-25.9"/>
						<path class="st26" d="M290.5,130.3c0,0,2-0.5,5.3-1.7"/>
						<path class="st1" d="M251.7,95.2c0,0,14,0,20.2-9.2h0c1.2-1.7,2-3.7,2.5-6.1c0.4-2,0.5-4.2,0.2-6.8"/>
						<path class="st1" d="M295.9,128.7c0.2,0,0.3-0.1,0.5-0.1c21.7-5,24.6-7.8,40-19.4c2.6-1.9,4.6-4.1,6.2-6.4h0
							c8.1-11.7,5.5-26.8,5.5-26.8s-12-19.5-23.8-22.5c-11.7-3-28.4,0-28.4,0s0,0-0.3,2.1c-0.3,1.9-5.1,8.3-9.3,9
							c-0.3,0.1-0.7,0.1-1,0.1c-4.5-0.3-13.5,1.1-16.1,2.6c-2.7,1.6-17.5,27.9-17.5,27.9c1,2.3,2.5,3.7,4.3,4.4
							c3.4,1.5,7.9,0.6,11.5,0.6c0.3,0,0.7,0,1.1-0.1c3.5-0.6,9.9-3.8,15.4-6.6c5.3-2.8,9.7-5.4,9.7-5.4s4.6-6.4,7.9-10.2
							c1-1.2,1.9-2.1,2.5-2.5c2.5-1.6,12.9-9.9,22.1,4.3c3.9,6,1.7,10.6-2.8,14.3c-6.1,5-16.5,8.4-21.8,11.2
							c-9.2,5-27.2,10.3-27.2,10.3c-17.5,15.2-20.4,38.6-20.4,38.6s-10,25.1,29.8,39c8.3,2.9,14.8,2.7,20,0.8c0,0,0.1,0,0.1,0
							c-0.4-0.8-0.9-1.6-1.2-2.4c-1-2.5-1.3-5.1-1-7.5c1.2-10,12.2-18.6,24.4-17.3c2.6-3.7,5.1-4.9,8.9-0.8c1.8,2,3,4.1,3.6,6.2
							c1.3,1.1,2.5,2.4,3.6,3.8c0,0,0,0,0,0c4.6,6,6.8,14.2,6.4,21.8c7.3-8.4,8.4-23.6,8.7-34.8c0.4-13.7-13.5-21.8-23.6-22.4
							c-10.2-0.6-17.5,6.1-28.4,20.3c-10.8,14.2-20.9-14.5-20.9-14.5s-7.9-10.2,6-16C292,129.7,293.8,129.2,295.9,128.7"/>
						<path class="st26" d="M295.8,128.7C295.8,128.7,295.8,128.7,295.8,128.7"/>
					</g>
				</g>
				<g class="st27">
					<path d="M295,224.5c0.4,0,3.8-0.2,3.3,0.4C298,225.4,295.1,225,295,224.5L295,224.5z"/>
					<path d="M262.5,150.2C257.7,150.2,262.8,148.5,262.5,150.2L262.5,150.2z"/>
					<path d="M268.3,147.3c-0.7,0.8-1.3,1.5-2,2.3c-0.9,1.1-1.1,0.4-2.2-0.4c-1.7-1.2-3.8-1.9-5.9-1.9c-0.5-0.8,0.4-1.6,0.8-2.1
						c0.7-0.7,1.3-0.4,2.2-0.4c1.2,0,2.2-0.5,2.4,0.7C264.2,148.1,268,145.9,268.3,147.3L268.3,147.3z"/>
					<path d="M272,121.5c0.6-0.6,1.5-1.9,2.3-1c1,1,2.1,2.1,3.1,3.1c-1,0-2.9-0.5-2.9,0.6c0,0.5,0.8,0.3,0.8,0.8c0,0.6,0,1.3,0,1.9
						c-1.3-0.2-7.1-0.6-7.1-1.8c0-1.8,0-1.5,1.8-1.5c1.5,0,3,0,4.5,0C274.6,122.1,273.2,121.7,272,121.5
						C272,121.5,273.7,121.9,272,121.5z"/>
					<path d="M286.2,115.2c0-1.2,1.7,0.1,2.2,0c1.2-0.2,2.4-0.5,3.6-0.4c-1,1.4-1.9,2.8-2.9,4.2c1,0,2.3,0.4,2.5-0.8
						c-0.4,1.5-0.8,3-1.2,4.5c-0.1,0.4-3.8-0.3-4.2-0.3c1-1.1,1.9-2.2,2.9-3.3c-0.6,0-3.8,0.2-3.8-0.2c0-1.3,1.3-2.5,2.1-3.5
						C287.1,115.2,286.6,115.1,286.2,115.2L286.2,115.2z"/>
					<path d="M312.9,103.9c0.8,0,1.6,0,2.5,0c1.6,0,0.5,1.7,2.1,1.7c0,2.9-10,3.5-11.7,3.8c-0.3-1.2,1.3-2.1,2-2.9
						c1-1,1.8-1.3,2.8,0c1,1.4,2.4,0.4,4,0.1c0.6-0.1,0.4-0.5,0.4-1.1C315,105,312.9,105.3,312.9,103.9
						C312.9,103.9,312.9,104.8,312.9,103.9z"/>
					<path d="M320,101.9c-0.7,0.7-1.4,1.4-2.1,2.1c-0.5-2.3-0.3-2.1,1.7-3.3C319.6,101.1,319.8,101.4,320,101.9L320,101.9z"/>
					<path d="M325,95.6c0.4,0.1,3.3-1,3.3-0.3c0,0.9,0,1.9,0,2.8c0,1-2.1,0-2.1,1.7c-1.4-0.3-2.8-0.6-4.2-0.8c0-1.4,3-1.3,3.8-1.3
						C326.3,97,325.6,95.9,325,95.6L325,95.6z"/>
					<path d="M308.2,68.1c0.2-1.3,5.4-1,6.5-1c-0.4,0.6-0.7,1.1-1.1,1.7c1.2,0,4.4-0.3,7.3-0.1c0.3,0,0.5,0,0.8,0.1
						c1.1,0.1,2.4,0.5,3.4,1.3c0.3,0.3,0.6,0.5,0.9,0.8c0.2,0.5,0.3,0.8,0.4,1.1c0,0.3,0,0.6,0,1c-0.4-0.2-0.7-0.4-0.9-0.6
						c-0.3-0.2-0.5-0.4-0.7-0.6c0.1,0.4,0.3,0.8,0.6,1.2c1.5,0.9,2.8,1.8,4,3.4c0,0-0.4,0.8-0.8,0.8c-0.4-0.4-0.8-0.8-1.3-1.3
						c-1.3,1.7,1.3,2.9,0.4,4.6c-1.3-2.5-1.7-5.8-3.9-7.8c-0.3-0.2-0.6-0.4-0.9-0.6c-0.3-0.2-0.6-0.4-0.9-0.6
						c-0.4-0.2-0.8-0.3-1.2-0.4c-2.8-0.7-5.8-0.8-8.5-0.8c0.6-0.4,2-0.9,1.1-1.6C312.1,67.9,309.7,68.1,308.2,68.1
						C308.2,68.1,311.8,68.1,308.2,68.1z"/>
					<path d="M291.7,72.7c0,1-2.5,2.2-3.3,2.8c-1.3,0.9-2.6,0.1-4.2-0.3c0.6-0.5,2.2-2.5,3-2.5C288.7,72.7,290.2,72.7,291.7,72.7
						L291.7,72.7z"/>
					<path d="M287.1,70.6c0-3.1,6.6-4.2,8.8-4.2c-0.7,2.3-0.4,2.8-2.8,3.3c-0.8,0.2-3.5-0.1-3.5,1.3
						C288.9,71.1,287.8,70.7,287.1,70.6C287.1,68.9,287.1,70.6,287.1,70.6z"/>
					<path d="M295.4,71.4c0-0.2-0.1-1.7,0-1.7c0.7,0,1.4,0,2.1,0C296.8,70.3,296.1,70.9,295.4,71.4L295.4,71.4z"/>
					<path d="M335,76.8c-2,0.3-5.1-4.1-5.4-5.8C333.1,71,335,73.5,335,76.8C335,76.8,335,73.1,335,76.8z"/>
					<path d="M333.8,67.2c3.7-0.1,5.5,1.8,5.4,5.4C336.9,71.5,335.1,69.5,333.8,67.2C333.8,67.2,335.5,70.2,333.8,67.2z"/>
					<path d="M325,67.2c-0.4-1.6,3.9-0.8,4.9-0.8c2.4,0,2.3,1.2,3.4,3.3C330.6,68.9,327.8,68.1,325,67.2L325,67.2z"/>
					<path d="M329.6,64.3c-0.3,1.8-7.3-0.5-8.8-0.8c0.9-2.3,0.9-2.1,3.3-2.1C325.7,61.4,330.1,62.3,329.6,64.3L329.6,64.3z"/>
					<path d="M321.8,67.9c-1.3-0.2-5.8-0.1-5.8-1.5c0-0.5,2.9-0.2,3.4-0.2C320.8,66.2,320.9,66.7,321.8,67.9L321.8,67.9z"/>
					<path d="M322.9,60.1c-0.7,0.2-2.3,1-3,0.8c-1.2-0.4-2.4-0.8-3.7-1.2c1.3-1.8,1.4-1.7,3.6-1.7C321.3,58.1,322.9,58.3,322.9,60.1
						L322.9,60.1z"/>
					<path d="M319.6,62.2c0.4,1.6-2.1,0.3-2.1,2.1c-1.1-0.2-2.3-0.4-3.4-0.6c-1.4-0.2-1.4-0.3-0.6-1.5
						C314.8,60.5,317.7,61.9,319.6,62.2L319.6,62.2z"/>
					<path d="M315.4,58.1c-1,0.2-5.4,1.8-5.4,0.2c0-1.2,1.7-0.6,2.7-0.6C313.4,57.6,315.4,57.2,315.4,58.1L315.4,58.1z"/>
					<path d="M311.3,61.4c-0.1,1-0.3,1.9-0.4,2.9c-1.3-0.3-2.6-0.5-3.9-0.8c-1.5-0.3-2.3,0-2.3-1.5C304.6,60.8,310,61.4,311.3,61.4
						L311.3,61.4z"/>
					<path d="M306.7,64.3c-0.2,0.5-0.4,1.4-0.8,1.7c-1.4,0.5-2.9,0.9-4,1.7c-0.8,0.6-0.3,0.8-1.4,0.5c-0.8-0.2-1.6-0.3-2.5-0.5
						c1.2-1.2,2.5-2.3,3.7-3.5C302.1,63.8,305.8,64.3,306.7,64.3L306.7,64.3z"/>
					<path d="M300.3,73.6c1.1-0.9,6.4-6.1,8-4.6c0.8,0.7-0.7,1.5-0.8,1.6c-1.1,0.4-2.2,0.9-3.2,1.6c-1.1,0.7-2.4,1.8-2.4,3.5
						c-0.7-0.7-1.5-1.4-2.2-2.1C299.9,73.6,300.1,73.5,300.3,73.6C304.1,70.2,300.3,73.6,300.3,73.6z"/>
					<path d="M342.1,94.3c1.1-0.3,0.9,0.7,0.8,1.5c-0.4,2.2-2.3,4-4.1,5.1c0-0.6-0.3-2,0-2.5C340.9,98.5,341.8,96.1,342.1,94.3
						C342.1,94.3,341.7,96.8,342.1,94.3z"/>
					<path d="M338.8,92.3c0.7-0.7,1.5-2,2.5-2.1c-0.1,1.8-0.3,3.6-0.4,5.3c-0.1,0.8-1-0.5-1.1-0.6C339.4,94,339.1,93.1,338.8,92.3
						L338.8,92.3z"/>
					<path d="M341.3,87.7c0.4-2.2,0.9-3.8,3.1-3.8c0.4,0,0.2,3.1,0.2,3.6c0,0.6-0.4,3.1-0.8,3.4c-1,0.8-0.9-1.2-0.9-1.6
						C342.7,88.5,342.4,87.7,341.3,87.7C341.7,85.2,342.5,87.7,341.3,87.7z"/>
					<path d="M340.9,84.8c-2.3,0-2.1-3.7-2.1-5.2c0-0.6,1.4,0.1,1.6,0.3c1,1.2,0.9,3.4,0.9,4.9C341.2,84.8,341,84.8,340.9,84.8
						C339.6,84.8,340.9,84.8,340.9,84.8z"/>
					<path d="M339.2,85.6c-0.3,1.6-1.6,5.7-2.5,2.3C336.2,85.6,337.6,85.6,339.2,85.6C338.8,88.1,339.2,85.6,339.2,85.6z"/>
					<path d="M333.8,95.6c-0.2-1.6,0.5-3.1,0.8-4.6c-0.6,0-1.6-0.2-2.1,0c-1.3,0.6-0.6,1.5-1.1,2.7c-0.8,1.9-2.4,0.1-1.8-1.4
						c0.5-1.3,2.4-2.7,3.4-3.7c0.9-1-0.1-4.9,2.1-4.6c-0.1,2.4-0.3,4.7-0.4,7.1C339.4,91,335.3,94.1,333.8,95.6L333.8,95.6z"/>
					<path d="M337.1,96.8c-0.3,1-1,4.2-2.5,4.2C334.6,99.4,335,97.1,337.1,96.8C336.3,99.8,337.1,96.8,337.1,96.8z"/>
					<path d="M323.8,110.6c0.6-1.5,2.5-5.4,4.6-5c-0.2,1.1-0.5,2.2-0.7,3.4c-0.2,1,1.6,1,1.6,1.9
						C329.2,112.9,324.9,110.9,323.8,110.6C324.6,108.5,323.8,110.6,323.8,110.6z"/>
					<path d="M325.9,112.7c-2.9,2.2-5.9,4.3-9.6,4.2C317.9,113.1,322.3,112.7,325.9,112.7C322.5,115.2,325.9,112.7,325.9,112.7z"/>
					<path d="M325,104.8c0-1.9,0.8-3.3,2.5-4.2c0,1.4,0,2.8,0,4.2C327.5,105.7,325.5,105.2,325,104.8C325,102.7,325,104.8,325,104.8
						z"/>
					<path d="M328.4,101.9c-0.3-1.3,3.1-5.9,4.2-5C334.2,98.2,329.7,102.2,328.4,101.9L328.4,101.9z"/>
					<path d="M329.2,91c-0.6,0.4-1.1,0.8-1.7,1.3c-0.2-1.1,0.9-1.5,1.7-2.1C329.2,90.4,329.2,90.7,329.2,91L329.2,91z"/>
					<path d="M329.6,107.3c0-2.6,1.6-4.3,3.8-5.4c0.3,1.4,0.7,2.5-0.2,3.8C332.5,106.5,330.1,108.7,329.6,107.3
						C329.6,104.8,329.6,107.3,329.6,107.3z"/>
					<path d="M322.9,101.9c3.1-0.6-0.2,3.2-0.8,4c-0.5,0.7-1,0.9-1.7,0.2C319,104.6,321.7,102.5,322.9,101.9
						C322.9,101.9,321.3,102.7,322.9,101.9z"/>
					<path d="M320.9,107.3c0.4-0.1,0.9,0,1.3,0c0,1.8-0.7,3.5-2.5,4.2c-0.9,0.3-3.4,1-3.4-0.3C316.3,109.7,319.6,108.2,320.9,107.3
						L320.9,107.3z"/>
					<path d="M297.1,122.3c-1.4-0.3-2.7-0.5-4.1-0.8c-0.5-0.1-0.1-2.1,0.5-2.4c1.4-0.6,2.9-1.2,4.3-1.8c1.6-0.7-1.9-2.1-2-2.1
						c1.3-1,1.8-1.7,3.4-1.7c0.8,0,2.9-0.5,2.3,0.7C300,117,298.5,119.6,297.1,122.3L297.1,122.3z"/>
					<path d="M298.3,124.8c-0.9,0.1-5.4,0.5-5.4,2.1c-0.8,0.2-2.4-0.3-3.3-0.4c1.2-2.1,1.1-2.9,3.5-2.9
						C295.5,123.5,296.7,123.1,298.3,124.8C295,125.2,298.3,124.8,298.3,124.8z"/>
					<path d="M301.2,120.2c1,0,2,0,3,0.2c0.4,0.1,3.5,0.6,2.1,1.2c-2.7,1.2-4.2,1-7.1,0.7C299.9,121.6,300.6,120.9,301.2,120.2
						L301.2,120.2z"/>
					<path d="M302.5,117.3c0.9-0.8,2.2-2.5,3.5-2.5c1.8,0,2,0.6,2,2.5c1.7-0.4,3.3-0.8,5-1.3c0,0.9,0,1.9,0,2.8
						c0,0.3-2.9-0.1-2.9,1.4C307.3,119.3,305.5,117.3,302.5,117.3C302.5,117.3,305,117.3,302.5,117.3z"/>
					<path d="M309.2,114.8c1.1-1.4,2.4-2.9,4.2-3.3c0,0.7,0.7,0.7,0.8,1.3c0.2,0.7,0,1.8,0,2.5C312.5,115.1,310.8,114.9,309.2,114.8
						C310.4,113.1,309.2,114.8,309.2,114.8z"/>
					<path d="M306.7,110.6c1.5,0,3,0,4.5,0c0.5,0-0.2,1.1-0.3,1.3c-1.2,0-2.1,0.3-2.1,1.7c-1.6-0.3-3.3-0.5-4.9-0.8
						c-0.4-0.1,0-0.9,0.3-1C305,111.3,305.8,111,306.7,110.6L306.7,110.6z"/>
					<path d="M304,109.8c-1.6,0.3-9.4,1.2-9.4,4.2c-0.9-0.3-3.4-1.1-3.4-2.5c3.1,0,6.3-0.6,9.1-2C301,109.1,303.9,107.8,304,109.8
						C298,111,304,109.8,304,109.8z"/>
					<path d="M288.3,124.4c-0.7,1.8-2.2,3.1-4.2,3.3c-1.7,0.2-1.2-0.4-1.2-1.9C282.9,123.7,287.2,124.4,288.3,124.4
						C287.5,126.5,288.3,124.4,288.3,124.4z"/>
					<path d="M289.2,129c-1.3,2.2-3.7,3.4-6.3,3.3c0.1-1-0.2-3.3,1-3.3C285.6,129,287.4,129,289.2,129
						C287.9,131.1,289.2,129,289.2,129z"/>
					<path d="M280.8,125.6c-1.7,0-2.9,0-1.3-1.6c1-1,2.2-3,3.8-2.6C282.5,122.9,281.6,124.2,280.8,125.6L280.8,125.6z"/>
					<path d="M283.3,118.1c-1.1-0.2-3.2-0.5-3.7-1.7c-0.5-1.1,0-1.2,0.9-1.2C282.3,115.2,283.6,116.1,283.3,118.1
						C280.8,117.7,283.3,118.1,283.3,118.1z"/>
					<path d="M280.8,121c-1.4,0-3.1-0.4-3.9-1.6c-0.7-1.1-0.2-1.3,0.8-1.3C279.4,118.1,279.9,119.7,280.8,121
						C278.7,121,280.8,121,280.8,121z"/>
					<path d="M271.2,129c1.5-0.1,3.1-0.3,4.6-0.4c-0.1,1-1,2-1.6,2.8c-0.2,0.3-2.2-0.7-2.6-0.8c-1.4-0.5-2.8-1-4.2-1.5
						c-0.8-0.3-0.4-1.5-0.4-2.2C268.4,126.9,271.2,127,271.2,129C271.2,129,271.2,127.7,271.2,129z"/>
					<path d="M270,137.3c-2.1,0.6,0.6-3.6,1.3-3.8C274.1,132.9,270.4,136.8,270,137.3L270,137.3z"/>
					<path d="M274.6,140.6c-0.2,1.3-0.6,4.6-2.5,4.6c0-1.3,0-2.6,0-3.9C272,140.1,273.5,140.6,274.6,140.6
						C274.1,143.6,274.6,140.6,274.6,140.6z"/>
					<path d="M270,131.1c0.1,0.4,0,0.9,0,1.3c-1.5,0-4.8,0.2-5.4-1.7C266.4,130.6,268.1,130.9,270,131.1L270,131.1z"/>
					<path d="M267.9,133.6c0,0.7,0,1.4,0,2.1c-1.1-0.1-4.2,0.2-4.2-1c0-1.3,0-1.1,1.3-1.1C265.9,133.6,266.9,133.6,267.9,133.6
						L267.9,133.6z"/>
					<path d="M265.8,137.3c0.4,0.4,0.8,0.8,1.3,1.3c-2.2,0-4.3-0.4-6.4-0.8c-1.2-0.2,1-0.5,1.3-0.5
						C263.2,137.3,264.5,137.3,265.8,137.3L265.8,137.3z"/>
					<path d="M261.6,140.6c1.3,0,2.5,0,3.8,0c0.7,0,0.6,2.1,0.1,2.1c-1.6,0-3.2,0-4.8,0C259.5,142.7,261.4,140.9,261.6,140.6
						L261.6,140.6z"/>
					<path d="M267,144.8c0-1.3,0.2-2.3,0.5-3.6c0.5-1.9,1-1.4,2.9-1.4C270.4,142.2,269.7,144.4,267,144.8
						C267,144.8,269.5,144.4,267,144.8z"/>
					<path d="M272.5,149.4c-0.4,0.1-2.1,0-1.3-0.8C271.8,148,272.7,148.7,272.5,149.4L272.5,149.4z"/>
					<path d="M277.5,148.6c-1.3,0-2.5,0-3.8,0c-1.8,0-0.9-1.3-0.4-2.3c0.2-0.5,2.9-0.2,3.5-0.2C278,146.1,277.5,147.4,277.5,148.6
						L277.5,148.6z"/>
					<path d="M274.1,138.6c0.1-1.4,0.2-2.9,0.4-4.3c0.1-1.3,1.9-0.7,3-0.7C277.5,135.8,275.9,137.5,274.1,138.6
						C274.1,138.6,276.2,137.3,274.1,138.6z"/>
					<path d="M276.6,131.5c0-1.9,1.1-4.5,3.3-4.6C280,128.9,279.2,131.8,276.6,131.5C276.6,129.4,276.6,131.5,276.6,131.5z"/>
					<path d="M277.9,138.6c-0.1-1.4,0.4-2.8,0.8-4.2c0.6-2.1,0.2-2.9,2.4-2.9c0.9,0,1.8,2.2,1.8,3.1
						C282.9,136.9,279.7,137.9,277.9,138.6C277.9,138.6,281.2,137.3,277.9,138.6z"/>
					<path d="M300,169c0.8,0,1.7,0,2.5,0c-0.4,1-0.7,2.9-1.9,2.9C298.6,171.9,299.5,170.2,300,169L300,169z"/>
					<path d="M309.2,166.5c0.6,0,1.1,0,1.7,0c-0.8,1.4-1.9,2.7-3.5,3.2c-1.6,0.4-1.4,0-2.2,1.4c-1.2,2.2-2.4,4.4-3.6,6.6
						c-0.3,0.5-0.5,0.8-1.1,0.6c-1.3-0.5,1.7-4.6,2.1-5.3C303.9,170.7,306.2,166.5,309.2,166.5C309.2,166.5,306.7,166.5,309.2,166.5
						z"/>
					<path d="M303.8,165.7c0.1-1.7,3.8-4.2,5-5.4c-0.4,1.6-0.7,3.2-1.1,4.9C307.4,166.3,304.8,165.7,303.8,165.7L303.8,165.7z"/>
					<path d="M333.4,144.8c-1.4,2.8-5.6,3.9-8.3,4.6c0-0.4-0.2-2,0.1-2.1c1.1-0.6,2.1-1.3,3.2-1.9
						C329.8,144.5,331.6,144.8,333.4,144.8C332.5,146.5,333.4,144.8,333.4,144.8z"/>
					<path d="M329.2,142.7c-0.4-1.6,3.5-0.8,4.5-0.8c1.3,0,4,0.4,3.4,2.1C334.5,143.6,331.8,143.2,329.2,142.7L329.2,142.7z"/>
					<path d="M347.5,171.9c0-0.6-0.5-6.6,1.3-5c0.3,0.3,0,2.9,0,3.4C348.8,171.4,349.1,172.4,347.5,171.9L347.5,171.9z"/>
					<path d="M343.4,171.1c0-0.9-0.4-2.5,0-3.3c0.3-0.6,1.8-1.9,2.5-1.3c0.4,0.3,0,3.3,0,3.9C345.9,171.7,344.5,171.1,343.4,171.1
						L343.4,171.1z"/>
					<path d="M344.6,172.8c0,0.4,0,0.8,0,1.3c-0.4-0.4-0.8-0.8-1.3-1.3C343.8,172.8,344.2,172.7,344.6,172.8L344.6,172.8z"/>
					<path d="M345.9,163.6c-1.1,1.4-2.9,3-2.9,0.2c0-1.6-0.1-1.5,1.5-1.5C345.5,162.3,346.3,162.1,345.9,163.6L345.9,163.6z"/>
					<path d="M344.6,160.3c-0.8,1.6-4.9,0.3-3.7-1.4c0.3-0.4,1.4-2.3,2.1-1.4C343.7,158.3,344.8,159.1,344.6,160.3L344.6,160.3z"/>
					<path d="M341.3,180.3c0,1.9,0,3.9,0,5.8c-1.7,0-2.6-3.1-2.3-4.3C339.3,179.9,339.4,180.3,341.3,180.3L341.3,180.3z"/>
					<path d="M339.2,177.4C338.7,175.6,343.2,177.4,339.2,177.4L339.2,177.4z"/>
					<path d="M307.9,187c0-1,0.5-2.9-0.6-2.9c-0.9,0-0.6,0.2-0.6,1.1c0,0.4-0.8,0.3-0.8,0.1c0-1.6-0.3-3.1,0.6-4.4
						c0.9-1.1,1.3-2.5,1.4-3.9c0.1-1,0.9-1.1,0.9-0.1c0,1.4-0.4,2.7-0.7,4c-0.3,1.4,1.5,1.2,2.6,1.6c0.4,0.1,0.1,3.4,0.1,3.9
						C310.8,187.6,309,187,307.9,187L307.9,187z"/>
					<path d="M310.8,192.4c0,0.7-0.8,0.4-1.5,0.4c-1.1,0-1.6-1.7-1.8-2.5c0.7,0,0.4-0.4,0.4-1.1c0-0.4,1.2-0.2,1.5-0.2
						C310.6,189,310.6,191.4,310.8,192.4L310.8,192.4z"/>
					<path d="M310,176.1c0-2.9-0.6-5.4,2.9-5.4C312.5,171.8,311.5,176.6,310,176.1L310,176.1z"/>
					<path d="M325,156.9c1.2-1.2,1.4-1.3,3.2-1.3c0.4,0,0.9,2.8,1,3.3C327.8,158.3,326.4,157.6,325,156.9L325,156.9z"/>
					<path d="M323.8,154.4c-1.7-0.9,0.3-2,1.2-2.8c0.6-0.6,3.4-0.1,4.3-0.1C329.2,152.7,324.5,154.1,323.8,154.4
						C323.8,154.4,327.1,153.2,323.8,154.4z"/>
					<path d="M324.2,159.4c0.6,0,1.1,0,1.7,0c-0.7,2.3-0.3,2.9-2.8,2.9C320.8,162.3,323.8,159.8,324.2,159.4L324.2,159.4z"/>
					<path d="M327.4,167.7c0.1,2.4-4.7,0.6-6.2,0.4c-0.2,0-0.1-0.4,0.2-0.4c0.7,0,1.4,0,2.1,0C324.7,167.7,326.1,167.7,327.4,167.7
						L327.4,167.7z"/>
					<path d="M322.9,157.3c-1.1,1.1-3.3,4.5-5,4.2c0-1.7,0.9-3.1,2.3-3.9C320.7,157.3,322.9,156.2,322.9,157.3L322.9,157.3z"/>
					<path d="M318.8,168.6c2.2-0.5,0.8,1.1,0.1,2c-0.5,0.6-1-0.1-1.2-0.5C317.4,169.6,318.4,168.9,318.8,168.6L318.8,168.6z"/>
					<path d="M320,195.7c0.7,0.7,1.4,1.4,2.1,2.1c-1-0.1-1.8-1.4-2.5-2.1C319.7,195.7,319.9,195.7,320,195.7L320,195.7z"/>
					<path d="M316.3,182.8c1.3-0.3,0.8,1,0.8,1.9c0,0.3-3,0.2-3.4,0.2c-1.6,0-2-4-2.4-5.4c0.7,0,2-0.4,2.2,0.4
						c0.3,1.1,0.7,2.2,0.7,3.3C314.9,183.1,315.6,182.9,316.3,182.8L316.3,182.8z"/>
					<path d="M312.1,189c1.4-0.4,1.8,0.7,2.5,1.7c0,0.1,2.3,2.9,1.5,2.9c-0.5,0-4.1,0.1-4.1-0.1C312.1,192,312.1,190.5,312.1,189
						L312.1,189z"/>
					<path d="M314.2,187c0.9,0,1.9,0,2.8,0c0.3,0,0.1,2.1,0.1,2.5C316.1,188.6,315.2,187.8,314.2,187L314.2,187z"/>
					<path d="M317.1,192.8c0.7-1,1.7-2.1,1.7-0.2c0,0.8,0.2,1-0.6,1C317.4,193.6,316.8,193.8,317.1,192.8L317.1,192.8z"/>
					<path d="M315.4,176.1c-1.7,0.3-3.2,0.7-1.5-1C315.6,173.5,315.4,174.2,315.4,176.1L315.4,176.1z"/>
					<path d="M311.3,195.7c0.7,0,1.3,0,2,0c1.2,0,1,0.4,1.9,1.2c2.3,2,5.8,2.6,8.6,3c-0.3,0.9-0.3,2.6-1.4,2.4
						c-1.5-0.4-3.1-0.7-4.6-1.1c-0.4-0.1-0.9-0.1-1.3-0.1c-0.2,0-0.5-2.1-0.8-2.5c-0.5-0.9-1.3-1.5-2.3-1.8
						C312.6,196.6,310.9,197,311.3,195.7L311.3,195.7z"/>
					<path d="M323.8,202c1.3,0,2.6,0,3.9,0c1.6,0,2.8-0.6,2.8,1.1C330.4,203.4,323.9,203.1,323.8,202L323.8,202z"/>
					<path d="M325,197.8c1.6,0,3.4-0.3,5,0.1c1.1,0.2,2.2,0.5,3.3,0.7c0.6,0.1,1.6-0.8,2.4-0.8c0.3,0,0.4,1.7,0.2,2.1
						c-0.7,1.5-2.7,0.5-3.9,0.2C331.1,200,325,199.2,325,197.8C325,197.8,325,198.6,325,197.8z"/>
					<path d="M329.2,194.9c1-1,1-1.5,2.1-0.7c1.1,0.8,2.2,1.6,3.3,2.3C332.8,196,331,195.4,329.2,194.9L329.2,194.9z"/>
					<path d="M323.4,172.9c-0.6,0.6-1.5,1.1-1.3,2.1c-1-0.2-3.8-0.6-3.8-2.1c2.3-0.3,4.5-0.7,6.8-1c2.2-0.3,2.6,0,4.4,1.4
						C327.6,173.1,325.5,172.9,323.4,172.9L323.4,172.9z"/>
					<path d="M329.6,154.4c1.1,0.3,0.9-0.6,1.7-0.8c0.7-0.2,1.7,0,2.5,0c0,1.3-0.1,2.9-1.4,3.5C330.7,157.9,330.1,155.6,329.6,154.4
						C329.6,154.4,330.4,156.5,329.6,154.4z"/>
					<path d="M339.2,157.3c-0.6,0-1.7,0.2-2.3-0.1c-0.6-0.4-1.9-1.4-1.1-2.4c0.3-0.3,2.7,0,3.2,0C339.3,154.8,339.2,157,339.2,157.3
						L339.2,157.3z"/>
					<path d="M336.7,152.3c-0.8-0.2-1.6-0.4-2.5-0.6c-0.3-0.1-1.6-1.1-0.8-1.1c2.5,0,3-0.3,4.5,1.7
						C337.5,152.3,337.1,152.4,336.7,152.3L336.7,152.3z"/>
					<path d="M322.9,148.2c-0.4,0-2.1,0.2-2.1-0.2c0-1.1,0-1,0.8-1.6c1.3-0.9,2.9-2.7,4.6-2.3C325.9,145.9,324.6,147.3,322.9,148.2
						C322.9,148.2,324.6,147.3,322.9,148.2z"/>
					<path d="M322.1,150.7c0,2.5-1.7,4.6-3.3,6.3c-0.6-0.7-1.6-1.6-1.7-2.5C317.9,152.1,319.6,150.7,322.1,150.7
						C322.1,152.3,319.6,150.7,322.1,150.7z"/>
					<path d="M316.3,161.5c1.2-0.3,1.3,2.1,0.8,2.9c-0.5,0.8-3.2,1.6-4.1,2c-1.3,0.6-1.1-1-0.5-1.6
						C313.8,163.7,315,162.6,316.3,161.5L316.3,161.5z"/>
					<path d="M315.4,158.2c-1.4,1.4-2.8,2.8-4.2,4.2c-0.3-1.7,3.1-3.9,4.2-5C315.4,157.6,315.5,157.9,315.4,158.2L315.4,158.2z"/>
					<path d="M309.2,159c-1.6-0.2,1.5-2.8,1.9-3.1c0.9-0.9,2.5-3.4,4-3.1C315,155.7,311.4,157.8,309.2,159
						C309.2,159,312.9,156.9,309.2,159z"/>
					<path d="M301.2,187c0,0.4,0.2,2.1-0.2,2.1c-0.9,0-1.9,0.4-2-0.6c-0.3-1.8-0.8-3.8-0.7-5.7C299.3,184.2,300.3,185.6,301.2,187
						L301.2,187z"/>
					<path d="M296.2,173.2c1,0,1.9,0,2.9,0c0,1.9-1.2,3.5-2.9,4.2C296.2,176,296.2,174.6,296.2,173.2L296.2,173.2z"/>
					<path d="M297.9,179.4c0.2,1.3-1.4,4.2-2.9,2.9C296,181.4,296.9,180.4,297.9,179.4L297.9,179.4z"/>
					<path d="M297.1,186.1c-0.4,0.4-0.8,0.8-1.3,1.3c0-0.8,0-1.7,0-2.5C296.2,185.3,296.7,185.7,297.1,186.1L297.1,186.1z"/>
					<path d="M350.1,171.1c0-0.2-0.1-3.7,0.8-2.5C351.4,169.2,351.2,171.4,350.1,171.1L350.1,171.1z"/>
					<path d="M352.1,176.5c-0.1-0.4,0-2.1,0.8-1.3C353.6,175.9,352.9,176.7,352.1,176.5L352.1,176.5z"/>
					<path d="M353,157.3c1.8-0.5,1.7,1.6,2,2.8c0.1,0.5-0.4,4-0.8,4.3c-1.6,1.1-1.3-1.5-1.3-2.2C353,160.6,353,159,353,157.3
						L353,157.3z"/>
					<path d="M353,166.9c0.8,1,2.6,4.5,0,5C351.4,172.2,351.7,167.7,353,166.9L353,166.9z"/>
					<path d="M348.8,154.4c0.9-0.4,1.8-1.1,2.5-0.4c1,1,0.8,1.5,0.8,2.9C350.9,156.4,348.3,156.3,348.8,154.4L348.8,154.4z"/>
					<path d="M350.1,160.3c1.6-0.5,0.8,4.3,0.8,5.4c-1.3-1.3-2.5-2.5-3.8-3.8C345.8,160.6,349.1,160.5,350.1,160.3L350.1,160.3z"/>
					<path d="M348,159c-1.4-0.7-2.9-1.4-4.3-2.2c-1.8-0.9-2.3-0.7-2.3-2.7c0-0.9,0.6-0.5,1.4-0.5c1.4,0,1.7-0.3,2.5,0.8
						c0.6,0.8,1.6,2.5,2.8,2.5C348.2,157.3,348,158.5,348,159L348,159z"/>
					<path d="M347.5,152.3c-2.7-0.6-5.4-1.3-8.1-1.9c-1.5-0.4,0.1-1-0.2-1.8c-0.3-0.8-2.5-0.4-3.5-0.4c-1,0-2.7,0.6-2.4-0.8
						c0.3-1.5,2.3-1.3,3.3-1.3c1.4,0,4.3,0.1,4.3,2.1C343.8,148.2,346.4,149.6,347.5,152.3C347.5,152.3,346.3,149.4,347.5,152.3z"/>
					<path d="M338.8,144c-0.4-1.9,5.8-1.4,5,1.3C342.1,144.8,340.5,144.4,338.8,144L338.8,144z"/>
					<path d="M345.5,81.8c-1.4,0-2.5,0.6-2.5-0.9c0-1.6,0-3.3,0-4.9c0.6,0.5,2.2,1.3,2.5,2.1C345.9,78.9,345.5,80.9,345.5,81.8
						L345.5,81.8z"/>
					<path d="M341.3,70.6c0.8,0,2-0.4,2.2,0.5c0.2,0.9,0.4,1.9,0.3,2.8C341.3,73.1,341.3,73.2,341.3,70.6L341.3,70.6z"/>
					<path d="M341.3,78.1c-1.4-0.7-2.8-1.5-4.2-2.2c-1.5-0.8-1.3-1-1.3-2.8c1.6,0.2,4,0.3,5,1.7C341.6,75.7,341.3,77.1,341.3,78.1
						L341.3,78.1z"/>
					<path d="M338,63.5c1.3,0.7,2.2,2.5,2.9,3.8c-0.7,0-1.9,0.3-2.2-0.3c-0.5-1.1-1-2.3-1.5-3.4C337.4,63.5,337.7,63.4,338,63.5
						C338.8,63.9,338,63.5,338,63.5z"/>
					<path d="M336.7,65.6c-1,2-5.7-1.8-7.1-2.5c0.6-0.6,2.7-2.9,3.8-1.6C334.3,62.5,336.7,64.2,336.7,65.6L336.7,65.6z"/>
					<path d="M303.2,54c0.2,0.1,0.5,0.3,0.7,0.5c-1.8,1-4.5,2.7-6.6,1.8C298.7,54.6,301,53.4,303.2,54C303.2,54,301.1,53.5,303.2,54
						z"/>
					<path d="M320,54.7c1.3,0,4.3-0.6,5.3,0.4c0.5,0.4,0.5,1.1,0.5,1.7c1.2,0.4,2.3,0.8,3.4,1.3c0.7,0.3,2.4,1,2.4,2
						c-1.4-0.1-2.7-0.3-4.1-0.4c-0.9-0.1-2.7-1.9-3.6-2.4c-1.6-0.8-3.4-1.4-5.3-1.4C319.2,55.6,319.6,55.1,320,54.7L320,54.7z"/>
					<path d="M315,53.5c0.3,0,2.3-0.2,2.5,0c0.2,0.3-4.8,1.4-5.6,1.6c-2.3,0.7-6.1,2-6.1,5c-1.1-0.3-6.6-0.7-4.9-2.2
						C304.3,55,310.9,54.4,315,53.5C315,53.5,305.4,55.6,315,53.5z"/>
					<path d="M298.3,60.1c1,0,1.9,0,2.9,0c-0.4,1.9-1.7,3.4-3.4,4.3c-1.7,0.9-2.5,0.6-4.3,0.3c-1.3-0.2-3.2-0.1-1.8-1.8
						C293.3,61.2,296.2,60.7,298.3,60.1C298.3,60.1,293.3,61.4,298.3,60.1z"/>
					<path d="M328.5,175.8c1.7,1.3,2.7,3.1,4.2,4.5c1.4,1.2,2.8,1.6,3.7,3.5c2.7-7.2-1.7-7.9-7.8-7.9"/>
					<path d="M329.8,169.6c2,1.8,4.4,5.2,7.5,4.4c-1.3-1.5-5.1-6.3-7.4-4.4"/>
					<path d="M315.3,179.7c1.2,0.3,5.5-0.3,3.6-2.3c-1.4-1.4-4.1,0.6-3.8,2.3"/>
					<path d="M328.6,162.1c7.7-5,11.8,0,12.4,8c-2-1.9-4.1-6.4-6.3-7.6c-1.6-0.9-4.5,0.1-6.3,0"/>
					<path d="M331.8,77.4c3.3,1,3.3,1.8,5,5.2c-0.7,0-1.8-0.2-2.5-0.3c-0.5-1.7-0.9-3.4-2.2-4.7"/>
				</g>
			</g>
		</g>
	</g>
	<g>
		
			<image style="overflow:visible;opacity:0.95;" width="169" height="209" xlink:href="39FE9C88.png"  transform="matrix(1 0 0 1 251.5014 206.8584)">
		</image>
		<g>
			<g>
				<g>
					<defs>
						<path id="SVGID_31_" d="M286.8,237.3c0,0,10.3,3.4,15.1,9.3c4.8,5.8,6.9,10.9,1.6,19.2s-13.3,19.3-9.2,40.5
							c4.2,21.2,11.2,35.7,12.3,40.6c1.1,4.9,0.9,13.1,2.7,15.7c1.8,2.6,1.1,18.2,1.1,18.2l11.8-3.2c0,0,7.1-18.1,13.4-24.9
							c6.3-6.9,9.8-13.4,12-21.4c2.2-7.9,7.8-37.8,6.9-52c-0.8-14.2-9.9-21.2-14.8-29.1c-4.9-7.9,0.1-5.7,0.1-5.7s-5.1-4.4-8.5-7.9
							c-3.4-3.5-5-6.3-5-6.3s-6.6-11.1-17.7-7.5C297.7,226.4,286.8,237.3,286.8,237.3z"/>
					</defs>
					<clipPath id="SVGID_32_">
						<use xlink:href="#SVGID_31_"  style="overflow:visible;"/>
					</clipPath>
				</g>
			</g>
			<g>
				<g>
					<path class="st28" d="M346.9,330.1c0,0-4.4,16.2-4.6,22.9c-0.2,6.7-0.2,6.7-0.2,6.7s6.3-14.4,9.1-13.2
						c2.9,1.2,6.5,3.7,6.2,11.1c0,0-4.1-4.5-7.6-1.2c-3.6,3.2-6.3,7.5-6.3,7.5l-2.7,6.9l-3.4-4.6c0,0-6.2,5.7-13.1,5.7
						s-2.1-6.2-2.1-6.2l11.3-3.2l0.6-32.1"/>
					<path class="st29" d="M346.9,330.1c0,0-4.4,16.2-4.6,22.9c-0.2,6.7-0.2,6.7-0.2,6.7s6.3-14.4,9.1-13.2
						c2.9,1.2,6.5,3.7,6.2,11.1c0,0-4.1-4.5-7.6-1.2c-3.6,3.2-6.3,7.5-6.3,7.5l-2.7,6.9l-3.4-4.6c0,0-6.2,5.7-13.1,5.7
						s-2.1-6.2-2.1-6.2l11.3-3.2l0.6-32.1"/>
				</g>
				<g>
					<path class="st28" d="M308,344.1c0,0-13.6,31.3-14.9,34.4c-1.3,3.2-7.2,5.5-7.6,9c-0.4,3.5,0.6,8.4,0.6,8.4l8.1-3.8
						c0,0-1.7,7.5,2.1,5c3.8-2.5,8.4-8.8,10.4-10.8c2.1-2.1,6.3-1.1,3.7-3.8c-2.6-2.7-10.2-4-10.2-4l13.4-25.1"/>
					<path class="st29" d="M308,344.1c0,0-13.6,31.3-14.9,34.4c-1.3,3.2-7.2,5.5-7.6,9c-0.4,3.5,0.6,8.4,0.6,8.4l8.1-3.8
						c0,0-1.7,7.5,2.1,5c3.8-2.5,8.4-8.8,10.4-10.8c2.1-2.1,6.3-1.1,3.7-3.8c-2.6-2.7-10.2-4-10.2-4l13.4-25.1"/>
				</g>
				<g>
					<path class="st30" d="M310.1,262.4c0,0-41.7,11-43,16.3c-1.3,5.2-3.8,29.2-3.8,37.5c0,8.3,0,8.3,0,8.3s7-20.7,8.1-31.1
						c1.2-10.4,6.4-13.2,6.4-13.2l32.2-7.5"/>
					<path class="st29" d="M310.1,262.4c0,0-41.7,11-43,16.3c-1.3,5.2-3.8,29.2-3.8,37.5c0,8.3,0,8.3,0,8.3s7-20.7,8.1-31.1
						c1.2-10.4,6.4-13.2,6.4-13.2l32.2-7.5"/>
				</g>
				<g>
					<path class="st30" d="M308.9,333.5l-11.7,3.2c0,0-4.3,1.5-2.9,7.5c1.4,6-2.5,12.1-5.1,13.1c-2.6,1-3.1,5.5-3.8,9.4
						c-0.7,3.9-8,7.1-3.2,20.9c3.1,8.7-5.4,20.7-4.6,13.8c0.8-7-14.2-76.8-14.2-76.8l7.1-42.5l32.5-12"/>
					<path class="st29" d="M308.9,333.5l-11.7,3.2c0,0-4.3,1.5-2.9,7.5c1.4,6-2.5,12.1-5.1,13.1c-2.6,1-3.1,5.5-3.8,9.4
						c-0.7,3.9-8,7.1-3.2,20.9c3.1,8.7-5.4,20.7-4.6,13.8c0.8-7-14.2-76.8-14.2-76.8l7.1-42.5l32.5-12"/>
				</g>
				<g>
					<path class="st29" d="M300.7,297.9c0,0,2.8,2.5-6.4,8.3c-9.2,5.8-11,3.6-11,3.6s2.1,5.6-2.4,4.3c-4.4-1.3-4.4-1.3-4.4-1.3
						s-7.4,3.5-5.7,8c1.7,4.5,2.3,7.2,2.3,7.2"/>
				</g>
				<g>
					<path class="st30" d="M337.4,250.6c0,0,15.2,10.6,16.1,4.5c0.9-6.1-3.1-23.3,1.2-26.7c4.4-3.4,15-10.7,22.2-3.3
						c7.2,7.4,26.4,20.8,26.7,48.3c0.3,27.5,4.6,90.1,4.6,90.1l-10.8-11.7c0,0-4.2-6.1-6.7-9.6c-2.5-3.5-10.4-8.3-10.4-8.3
						s-2.5-9-2.5-10.6s-7.8,0.3-7.8-3.9c0-4.2-4,11-4,11s-3.2-7.8-4.1-12c-0.8-4.2-16.7-3.2-16.7-3.2"/>
					<path class="st29" d="M337.4,250.6c0,0,15.2,10.6,16.1,4.5c0.9-6.1-3.1-23.3,1.2-26.7c4.4-3.4,15-10.7,22.2-3.3
						c7.2,7.4,26.4,20.8,26.7,48.3c0.3,27.5,4.6,90.1,4.6,90.1l-10.8-11.7c0,0-4.2-6.1-6.7-9.6c-2.5-3.5-10.4-8.3-10.4-8.3
						s-2.5-9-2.5-10.6s-7.8,0.3-7.8-3.9c0-4.2-4,11-4,11s-3.2-7.8-4.1-12c-0.8-4.2-16.7-3.2-16.7-3.2"/>
				</g>
				<g>
					<path class="st29" d="M365.2,232.4c0,0,3.1-1.5,8.6,5.4c5.4,6.9,13.7,22.8,16.2,28.3c2.5,5.4,8.6,16,8.6,16"/>
				</g>
				<g>
					<path class="st29" d="M363.5,243.9c0,0,11.4-3.4,7-9.5"/>
				</g>
				<g>
					<path class="st29" d="M362.3,250.1c0,0,6.5,3.5,8.1-2.3"/>
				</g>
				<g>
					<path class="st29" d="M378.3,263.7c0,0,2.7,8.1,7.3,10.4"/>
				</g>
				<g>
					<path class="st29" d="M370.4,262.4c0,0-0.2,6,5.6,9.6"/>
				</g>
				<g>
					<path class="st31" d="M347.8,256.3c0,0,9.6,5.9,11.3,19.7"/>
					<path class="st29" d="M347.8,256.3c0,0,9.6,5.9,11.3,19.7"/>
				</g>
				<g>
					<path class="st29" d="M371.9,275.4c0,0-0.5,5.5,4.2,6.7c4.7,1.2,2.3-5.3,2.3-5.3s3.1,6.5,6,6.9c2.9,0.4-1.4,31.2,5.3,43.5"/>
				</g>
				<g>
					<path class="st29" d="M387.7,278.7c0,0,3.8,7.6,6.3,9.1l-0.8,24.3c0,0,4.1,0.2,3.4,4.6c-0.7,4.4-5.1,26.2,0.7,35.1"/>
				</g>
				<g>
					<polyline class="st29" points="366.9,282 375.6,288.3 376.9,306.6 					"/>
				</g>
				<g>
					<path class="st29" d="M379.4,287l1.4,10.8l2.4,3.5l0.3,17.3c0,0-1.2,14.7,3.5,19.8"/>
				</g>
				<g>
					<path class="st29" d="M354.4,276.8c0,0,1.9-1,2,2.7c0.2,3.7,2.7,15.7,2.7,15.7l2.7,6c0,0-1.9,8.1-0.3,16.4"/>
				</g>
				<g>
					<path class="st31" d="M364.3,290.7l0.9,6.4c0,0,2.2,0.6,2.3,4.9c0.2,4.4-2.8,3.1,2.1,16.6"/>
					<path class="st29" d="M364.3,290.7l0.9,6.4c0,0,2.2,0.6,2.3,4.9c0.2,4.4-2.8,3.1,2.1,16.6"/>
				</g>
				<g>
					<path class="st31" d="M371.9,291.6c0,0-2.5,1.4-1.3,5.5"/>
					<path class="st29" d="M371.9,291.6c0,0-2.5,1.4-1.3,5.5"/>
				</g>
				<g>
					<path class="st31" d="M372.7,301.2c0,0-0.8,12.9,0.5,20.9"/>
					<path class="st29" d="M372.7,301.2c0,0-0.8,12.9,0.5,20.9"/>
				</g>
				<g>
					<defs>
						<path id="SVGID_33_" d="M286.8,237.3c0,0,10.3,3.4,15.1,9.3c4.8,5.8,6.9,10.9,1.6,19.2s-13.3,19.3-9.2,40.5
							c4.2,21.2,11.2,35.7,12.3,40.6c1.1,4.9,0.9,13.1,2.7,15.7c1.8,2.6,1.1,18.2,1.1,18.2l11.8-3.2c0,0,7.1-18.1,13.4-24.9
							c6.3-6.9,9.8-13.4,12-21.4c2.2-7.9,7.8-37.8,6.9-52c-0.8-14.2-9.9-21.2-14.8-29.1c-4.9-7.9,0.1-5.7,0.1-5.7s-5.1-4.4-8.5-7.9
							c-3.4-3.5-5-6.3-5-6.3s-6.6-11.1-17.7-7.5C297.7,226.4,286.8,237.3,286.8,237.3z"/>
					</defs>
					<use xlink:href="#SVGID_33_"  style="overflow:visible;fill:#E8C572;"/>
					<clipPath id="SVGID_34_">
						<use xlink:href="#SVGID_33_"  style="overflow:visible;"/>
					</clipPath>
					<g class="st32">
						<path class="st33" d="M288,238.9c2.4,3.4,4.6,7.6,7.4,10.6c3.7,4,3.9,6.9,2.7,12.3c-0.4,1.7-3.4,9.6-1.3,10.8
							c2.5,1.5,8.8-6,11.7-6.1c0.4,1.5,0.3,2.9,0.4,4.4c2.9-2,4.6-5,7.2-7.2c0.4,3.6-1.1,9.9,1.8,12.8c1.8-3.2,5.1-14.5,9.8-11
							c1,0.7,1.9,2.8,3.1,3.1c1.5,0.4,1.1-0.3,2.3-0.9c3.3-1.7,5.4,1.4,8.5,0.3c2.3-0.8,3.8-4.1,5-6c1.9-3,4-6.1,4.9-9.5
							c2-7.8-2.7-18.9-7.5-24.9c-5.4-6.9-15.2-6.7-23.1-8.6c-6.7-1.6-11.1-2.4-17.5,0.4c-5.5,2.4-9.6,4.5-11.9,10.1
							c-1.2,3-3.6,5.4-4.3,8.6"/>
					</g>
					
						<use xlink:href="#SVGID_33_"  style="overflow:visible;fill:none;stroke:#6B340D;stroke-width:1.2;stroke-linecap:round;stroke-linejoin:round;stroke-miterlimit:10;"/>
				</g>
				<g>
					<path class="st34" d="M303.5,225c0,0-6.1,2.4-13.8,2c-8.8-0.6-10,15.5-9.4,18.3c0.6,2.8,0.5,1.9,0.5,1.9s6.7-9.2,12.2-9.4
						c5.5-0.2,15.9,5.4,15.9,5.4S303.5,237.8,303.5,225z"/>
					<path class="st29" d="M303.5,225c0,0-6.1,2.4-13.8,2c-8.8-0.6-10,15.5-9.4,18.3c0.6,2.8,0.5,1.9,0.5,1.9s6.7-9.2,12.2-9.4
						c5.5-0.2,15.9,5.4,15.9,5.4S303.5,237.8,303.5,225z"/>
				</g>
				<g>
					<path class="st29" d="M280.5,378.5c0,0,0-8.5-0.9-12.3c-0.8-3.8-6.7-23.6-5.2-31.7"/>
				</g>
				<g>
					<path class="st31" d="M280.5,314c0,0,0.8,15.2,1,20.6"/>
					<path class="st29" d="M280.5,314c0,0,0.8,15.2,1,20.6"/>
				</g>
				<g>
					<path class="st31" d="M280.9,340c0,0,1.8,3.1,1.2,8.2"/>
					<path class="st29" d="M280.9,340c0,0,1.8,3.1,1.2,8.2"/>
				</g>
				<g>
					<path class="st29" d="M282.2,351.6c0,0,5.3,7,2.6,16.5"/>
				</g>
				<g>
					<path class="st31" d="M286.1,310.1c0,0-1.6,21.5,0,30.9"/>
					<path class="st29" d="M286.1,310.1c0,0-1.6,21.5,0,30.9"/>
				</g>
				<g>
					<path class="st29" d="M288.7,341c0,0,3.4,7.3,0,16.5"/>
				</g>
				<g>
					<path class="st29" d="M288.7,325.5c-3.1-6.1,0.8-16.6,0.8-16.6l6.8,28.3"/>
				</g>
				<g>
					<path class="st31" d="M291.2,335.4c0,0,2.7-1.8,2.8,6.4"/>
					<path class="st29" d="M291.2,335.4c0,0,2.7-1.8,2.8,6.4"/>
				</g>
				<g>
					<line class="st31" x1="279.3" y1="290.7" x2="274.9" y2="296.8"/>
					<line class="st29" x1="279.3" y1="290.7" x2="274.9" y2="296.8"/>
				</g>
				<g>
					<path class="st29" d="M274.9,308.9c0,0,17-3.2,18.2-13.7"/>
				</g>
				<g>
					<path class="st31" d="M279.7,300c0,0,6.7-2.7,7.1-6.2"/>
					<path class="st29" d="M279.7,300c0,0,6.7-2.7,7.1-6.2"/>
				</g>
				<g>
					<path class="st29" d="M286.8,290.7c0,0,5.5,1.3,7.5-5.9"/>
				</g>
				<g>
					<line class="st31" x1="273" y1="302.1" x2="276.8" y2="298.3"/>
					<line class="st29" x1="273" y1="302.1" x2="276.8" y2="298.3"/>
				</g>
				<g>
					<path class="st31" d="M362.3,268.9c0,0-0.6,5.5,4.1,7.1"/>
					<path class="st29" d="M362.3,268.9c0,0-0.6,5.5,4.1,7.1"/>
				</g>
				<g>
					<path class="st29" d="M308.9,235.7c0,0,11.5,2.9,19,12.1"/>
				</g>
				<path class="st35" d="M307.6,229.1l8.8,1.3c0,0-3.7-0.1-4.2,3.8C312.2,234.1,311.2,230.9,307.6,229.1z"/>
				<g>
					<path class="st31" d="M342.7,257.1c0,0,1.8,6.4,2.4,10.1"/>
					<path class="st29" d="M342.7,257.1c0,0,1.8,6.4,2.4,10.1"/>
				</g>
				<g>
					<path class="st29" d="M322.2,265.8c0,0-3.9,9.6-3.8,12.9c0.1,3.3-5.1-15-5.1-15l-3.9,7.5l-0.4-5.1c0,0-2.7-2.5-9.3,5.9"/>
				</g>
				<g>
					<path class="st29" d="M327.6,262.2c0,0,7,12.9,7.6,5.7"/>
				</g>
				<g>
					<path class="st31" d="M299.6,284.8c0,0-4.1,12.1,0,23.1"/>
					<path class="st29" d="M299.6,284.8c0,0-4.1,12.1,0,23.1"/>
				</g>
				<g>
					<path class="st31" d="M341.4,267.9c0,0,6.5,12.8,5.4,20"/>
					<path class="st29" d="M341.4,267.9c0,0,6.5,12.8,5.4,20"/>
				</g>
				<g>
					<line class="st31" x1="350.2" y1="275.4" x2="351.2" y2="292.6"/>
					<line class="st29" x1="350.2" y1="275.4" x2="351.2" y2="292.6"/>
				</g>
				<g>
					<path class="st31" d="M348.9,303.5c0,0-1.1,20.4-5,25.7c-3.9,5.2-3.9,5.2-3.9,5.2s4.2,2.8,1.5,7.4c-2.7,4.6-6.7-3.9-6.7-3.9
						s1.5,1.4-1.3,6.3c-2.7,4.9-5,8.8-5,8.8s9.3-6.9,7.2-0.3"/>
					<path class="st29" d="M348.9,303.5c0,0-1.1,20.4-5,25.7c-3.9,5.2-3.9,5.2-3.9,5.2s4.2,2.8,1.5,7.4c-2.7,4.6-6.7-3.9-6.7-3.9
						s1.5,1.4-1.3,6.3c-2.7,4.9-5,8.8-5,8.8s9.3-6.9,7.2-0.3"/>
				</g>
				<g>
					<path class="st31" d="M301.1,311.7c0,0-0.3,7.3,2,11.3"/>
					<path class="st29" d="M301.1,311.7c0,0-0.3,7.3,2,11.3"/>
				</g>
				<g>
					<path class="st31" d="M302,292.6l2.7,8.6c0,0-4,1.3-1,5.4c3,4.2,5.1,6.1,5.1,6.1"/>
					<path class="st29" d="M302,292.6l2.7,8.6c0,0-4,1.3-1,5.4c3,4.2,5.1,6.1,5.1,6.1"/>
				</g>
				<g>
					<path class="st31" d="M304.3,311.7c0,0,1.9,8.9,4.6,10.5"/>
					<path class="st29" d="M304.3,311.7c0,0,1.9,8.9,4.6,10.5"/>
				</g>
				<g>
					<path class="st31" d="M323.9,359.2c0,0-5.3,0.9-13.4,19.3"/>
					<path class="st29" d="M323.9,359.2c0,0-5.3,0.9-13.4,19.3"/>
				</g>
				<g>
					<path class="st31" d="M319.4,375.7c0,0-4.8-1.5-2.2-10"/>
					<path class="st29" d="M319.4,375.7c0,0-4.8-1.5-2.2-10"/>
				</g>
				<g>
					<line class="st31" x1="306" y1="330.4" x2="309.3" y2="337.9"/>
					<line class="st29" x1="306" y1="330.4" x2="309.3" y2="337.9"/>
				</g>
				<g>
					<path class="st31" d="M308,284.1c0,0-0.1,14.3,12.7,20.6"/>
					<path class="st29" d="M308,284.1c0,0-0.1,14.3,12.7,20.6"/>
				</g>
				<g>
					<path class="st31" d="M341.4,290.7c0,0,3.1,9-2.1,19.3"/>
					<path class="st29" d="M341.4,290.7c0,0,3.1,9-2.1,19.3"/>
				</g>
				<g>
					<path class="st31" d="M316.4,352.1c0,0-4.5-0.8-6.5,11.9"/>
					<path class="st29" d="M316.4,352.1c0,0-4.5-0.8-6.5,11.9"/>
				</g>
				<g>
					<path class="st31" d="M309.3,327.1c0,0-0.9,4.2,4.5,5.9"/>
					<path class="st29" d="M309.3,327.1c0,0-0.9,4.2,4.5,5.9"/>
				</g>
				<g>
					<path class="st29" d="M292.6,383.6c0,0,2.7,1,1.7,8.5"/>
				</g>
			</g>
			<g>
				<g>
					<defs>
						<path id="SVGID_35_" d="M286.8,237.3c0,0,10.3,3.4,15.1,9.3c4.8,5.8,6.9,10.9,1.6,19.2s-13.3,19.3-9.2,40.5
							c4.2,21.2,11.2,35.7,12.3,40.6c1.1,4.9,0.9,13.1,2.7,15.7c1.8,2.6,1.1,18.2,1.1,18.2l11.8-3.2c0,0,7.1-18.1,13.4-24.9
							c6.3-6.9,9.8-13.4,12-21.4c2.2-7.9,7.8-37.8,6.9-52c-0.8-14.2-9.9-21.2-14.8-29.1c-4.9-7.9,0.1-5.7,0.1-5.7s-5.1-4.4-8.5-7.9
							c-3.4-3.5-5-6.3-5-6.3s-6.6-11.1-17.7-7.5C297.7,226.4,286.8,237.3,286.8,237.3z"/>
					</defs>
					<clipPath id="SVGID_36_">
						<use xlink:href="#SVGID_35_"  style="overflow:visible;"/>
					</clipPath>
				</g>
			</g>
		</g>
	</g>
	<g>
		
			<image style="overflow:visible;" width="201" height="193" xlink:href="61CC9DFD.png"  transform="matrix(1 0 0 1 131.8593 118.2168)">
		</image>
		<g>
			<g>
				<g>
					<path class="st36" d="M288.5,190.9c1.1-19.1,21.3-25.1,21.3-25.1c-17.6-8.6-17.1-25.3-17.1-25.3
						c-22.8,14.1-57.3,14.4-60.7,14.4v0c0,0-0.1,0-0.1,0c-0.1,0-0.1,0-0.1,0v0c-3.4,0-37.9-0.3-60.7-14.4c0,0,0.5,16.7-17.1,25.3
						c0,0,20.1,6,21.3,25.1c1.1,19.1,4.7,69.4-12.3,75.7l17.1,22.1c0,0,6.4-12.6,51.9-12.7c45.5,0,51.9,12.7,51.9,12.7l18.8-21.4
						C283.4,259.1,287.4,210,288.5,190.9z"/>
					<path class="st37" d="M285.8,190.8c1-17.4,17.9-25.2,17.9-25.2c-15.3-7.8-14.2-20.4-14.2-20.4c-19.9,12.8-54.8,12.8-57.8,12.8
						v0c0,0,0,0-0.1,0c-0.1,0-0.1,0-0.1,0v0c-3,0-38.1-0.3-58-13.2c0,0,0.3,12-13.3,20.5c-1,0.3,17.1,5.2,18.3,27.2
						c1,17.4,3.6,68.7-11.2,74.4l13.4,17.1c0,0,11.7-10.9,51.3-10.9c39.6,0,52.1,11.4,52.1,11.4l13.9-17.1
						C281.3,259.8,284.8,208.2,285.8,190.8z"/>
				</g>
				<g>
					<path d="M188.7,258.3c0,0-7.5,2.1-3.8,10.4c3.8,8.3,16.9,1.7,19.2-2.1c0,0,10,7.1,16.3,3.8c6.3-3.3,5.8-7.5,5.4-10.4
						c0,0-1,6.6-5.2,6.2c-4.2-0.4-8.8-5.3-9.4-48.1c-0.6-42.9-1.5-52.1,7.1-52.3c8.6-0.2,4.9,7.3,1.3,7.5c-3.6,0.2,7.4,0.5,7.5-4.8
						c0.2-5.7-7.6-15-22.9-1.5c0,0-10.4-8.6-18.4-4.6c-7.9,4-4.2,12.9-4.2,12.9s2-13.2,9.5-6.9c7.4,6.3,7.2,65.7,7.2,65.7
						s0.8,28.9-4.5,31.2C190,266.9,185.8,264.2,188.7,258.3z"/>
					<path d="M276.9,257c0,0,7.5,2,3.8,10.2c-3.8,8.1-16.9,1.6-19.2-2c0,0-10,6.9-16.3,3.7c-6.3-3.2-5.8-7.3-5.4-10.2
						c0,0,1,6.4,5.2,6c4.2-0.4,8.8-5.1,9.4-46.9c0.6-41.7,1.5-50.8-7.1-51c-8.6-0.2-4.9,7.1-1.3,7.3c3.7,0.2-7.4,0.4-7.5-4.7
						c-0.2-5.6,7.6-14.6,22.9-1.4c0,0,10.4-8.3,18.4-4.5c7.9,3.9,4.2,12.6,4.2,12.6s-2-12.8-9.5-6.7c-7.4,6.1-7.2,64-7.2,64
						s-0.8,28.1,4.5,30.4C275.7,265.4,279.9,262.8,276.9,257z"/>
					<path d="M184.2,232.4c0,0,7.7-21.7,31.3-19.2c0,0,14,0.6,15.9,9.6c0,0,7.1-8.7,26.8-9.8c19.7-1.1,27.2-8.5,24.8-16.3
						c-2.4-7.7-8.3-3.1-8.3-3.1s7.3-1,4.6,6c-2.4,6.1-33.1,9.9-45.9-6.8c0,0,0.5,7.9-38.2,17.7C195,210.5,185.2,213.4,184.2,232.4z"
						/>
					<path class="st13" d="M205.2,254.1c0,0-3.2-56.3-1.3-76.7C203.9,177.4,208.3,222,205.2,254.1z"/>
					<path class="st13" d="M262.9,254.7c0,0-3.2-56.3-1.3-76.7C261.6,177.9,266,222.5,262.9,254.7z"/>
					<path class="st13" d="M220.8,207.5c0,0,10.1-1.9,12.9-5.6c0,0,4.8,5.3,9.9,5.6c0,0-5.6-0.2-9.5,3.3
						C234.1,210.8,233.2,207.7,220.8,207.5z"/>
				</g>
			</g>
		</g>
	</g>
	<g>
		
			<image style="overflow:visible;opacity:0.45;" width="52" height="47" xlink:href="61CC9DF3.png"  transform="matrix(1 0 0 1 266.5013 212.8584)">
		</image>
		<g>
			<path class="st38" d="M303.5,225c0,0-6.1,2.4-13.8,2c-8.8-0.6-10,15.5-9.4,18.3c0.6,2.8,0.5,1.9,0.5,1.9s6.7-9.2,12.2-9.4
				c5.5-0.2,15.9,5.4,15.9,5.4S303.5,237.8,303.5,225z"/>
			<path class="st29" d="M303.5,225c0,0-6.1,2.4-13.8,2c-8.8-0.6-10,15.5-9.4,18.3c0.6,2.8,0.5,1.9,0.5,1.9s6.7-9.2,12.2-9.4
				c5.5-0.2,15.9,5.4,15.9,5.4S303.5,237.8,303.5,225z"/>
		</g>
	</g>
	<g>
		<g class="st27">
			<path class="st20" d="M532.3,254.9"/>
		</g>
		<g>
			<g>
				<g>
					<path class="st39" d="M532.3,254.9"/>
				</g>
			</g>
		</g>
	</g>
</g>
</svg>
